<svg id="Calque_1" data-name="Calque 1" xmlns="http://www.w3.org/2000/svg" viewBox="0 0 375.3 220.04"><defs><style>.cls-1,.cls-2{fill:#fff;}.cls-2{stroke:#fff;stroke-miterlimit:10;stroke-width:3px;}</style></defs><title>logo-nm</title><path class="cls-1" d="M371.47,143.8c-3.62-10.33-15.06-11.7-22.19-7.36C342.86,117,327.65,97.23,306.15,98.1c-12.74.52-19.58,10.34-22.1,21.72-2.21,10-3.74,20.2-5.21,30.41q-6.7-4.34-13.42-8.64c-8.13-5.19-16.39-10.2-26.38-7.47a22.7,22.7,0,0,0-12.1,8.29c-1.9-2.91-3.83-5.8-5.85-8.65-4-5.6-9.45-7.33-14.33-6.44a81.12,81.12,0,0,0-22.29-11c-4.81-1.52-11.19.48-14.76,4.5-2.75-1.8-5.57-3.52-8.55-5.08-8.55-4.48-22.5.85-21.27,12.2a198,198,0,0,1,0,43.39,96.77,96.77,0,0,0-20.53-15c-8.9-4.86-21.91,1.1-21.27,12.2l.06,1a26.59,26.59,0,0,0-13.06,4.82c-.5.36-.95.74-1.41,1.11a187,187,0,0,0-40.52-33.8c-10.63-6.58-23.06,4.1-21,14.94-7.25-2.5-14.94,3.75-17.54,10.19A61.27,61.27,0,0,0,.54,198.36c2.29,17.8,30.58,18,28.27,0-.21-1.6-.32-3.14-.39-4.64a15.7,15.7,0,0,0,13.38-6.55,13.22,13.22,0,0,0,13.75-.44,154.07,154.07,0,0,1,21.32,25.59c10.32,15.51,31.43,2.17,24.41-14.27l2.2,1.68c6.06,6.83,17.24,4.43,22-2.39a74.63,74.63,0,0,1,9.93,15.8c5.36,11.38,22.75,7.61,25.83-3.38a218.17,218.17,0,0,0,8.08-52.44,72.26,72.26,0,0,1,5.63,7.22c7.72,11.18,23.49,6,26.41-3.69,1.06,1.43,2.09,2.91,3,4.49a14.2,14.2,0,0,0,7.15,6.26c3.51,6.31,6.81,12.74,9.79,19.39,5.41,12.05,22.23,6.92,25.83-3.38a42,42,0,0,0,2.15-15.85c-.06-1.6,0-3.88-.21-5.89,4.33,2.86,10.94,5.87,13.21,7.35l20.07,13c7.07,4.57,19.32.44,20.76-8.45l5.72-35.28c.74-4.54,1.67-9.15,2.26-13.73a22.56,22.56,0,0,1,4.61,3.89c7.52,7.73,5.71,16.22,10.29,24.69,4.76,8.82,17.72,16.83,25,23.4,9.37,8.44,23.33,2.38,24.13-10A66.69,66.69,0,0,0,371.47,143.8Z"/><path class="cls-2" d="M136,47c-.19-.59-.33-1-.45-1.29s-.05-.43-.09-.69c-.21-1.54.08-2.7-.67-4.19a10,10,0,0,0-4.72-4.15c-1.21-.63-2.09-.73-2.18-1.82s.94-2.79,1-4a8.19,8.19,0,0,0-2.37-6.46,11.44,11.44,0,0,1-2.3-2.37c-.63-.85-1.13-1.78-1.84-2.57a7.3,7.3,0,0,0,1.14-3.68,7.77,7.77,0,0,0-.39-2.83,10.35,10.35,0,0,1,1.22-.49c5.28-1.76,3-10.17-2.31-8.39a19.08,19.08,0,0,0-8.41,5.35,4.16,4.16,0,0,0,.33,6.22,3.22,3.22,0,0,0-1.39.47c-4.5,1.6-4,8.47,1.16,8.55,2.68,0,2.87,2.19,4.15,4,1.53,2.14,2.76,1.21,1.9,3.39a8.8,8.8,0,0,0,3.11,10.61c1,.73,3.27,1.24,4,2.2a15.71,15.71,0,0,0,.37,4.72,5.26,5.26,0,0,1,.69,2.67,18.37,18.37,0,0,1-.72,3.37l-1.33-2.05a5.45,5.45,0,0,0-.41-1.27l-.2-.43a3.29,3.29,0,0,0-.78-1l-.81-3.19c-.81-3.19-4.43-3.86-6.76-2.24a4.64,4.64,0,0,0-1.72-.79c0-.17,0-.34,0-.51.28-3-3-4.68-5.51-4.2l-7.39,1.43c-1.56-2.34-3.4-4.73-6-5.19,0-.15,0-.31,0-.46a4,4,0,0,0,.06-2.5l-.13-.39a4.78,4.78,0,0,0-1.37-2.09A10.35,10.35,0,0,0,93.63,28a12.46,12.46,0,0,0-4.33-3.94c-4.43-2.56-9.82-3.21-14.74-4.3C72,19.2,68.79,21,69.05,24a12.9,12.9,0,0,0,3.77,8.26,10.71,10.71,0,0,0-.86,3,7.43,7.43,0,0,0-4,6.22,6.78,6.78,0,0,0,1.5,4.66,6.62,6.62,0,0,0-.07,1.06,6.69,6.69,0,0,0,3.25,5.51,16.69,16.69,0,0,0,0,6.84A4.9,4.9,0,0,0,72.08,63c.72,3.23,1.58,6.4,2.6,9.55,1.72,5.31,10.12,3,8.39-2.31-.58-1.8-1.11-3.61-1.59-5.43a4.86,4.86,0,0,0,.47-5,8.19,8.19,0,0,1-.29-7.33c1-2.3.45-4.93-1.79-6.06a4.72,4.72,0,0,0-.94-4.27,4.72,4.72,0,0,0,1.68-4.74c-.35-1.41.23-2.08,1.43-2.71a4.12,4.12,0,0,0,2.07-3.59,5.5,5.5,0,0,1,2.38,2.4c.63,1.38.63,2.62,1.23,3.64a15.33,15.33,0,0,0,3.45,7.56A3.33,3.33,0,0,0,94.77,46a25.1,25.1,0,0,0,1.82,2.39,4.58,4.58,0,0,0,4.91,2l2.41-.47a6.73,6.73,0,0,0,.59,1,5.48,5.48,0,0,0,3,2.14,4.19,4.19,0,0,0,1.33,1,3.33,3.33,0,0,0,2.29,1.7c.37,3.36,4.81,4.17,7.24,2.22l7.08,10.94c1.91,3,7.11,2.81,8-1C134.84,61.41,138.09,53.51,136,47Z"/><path class="cls-2" d="M250.47,66.53l-3.35-.32a28.54,28.54,0,0,0,.63-6.9,4.2,4.2,0,0,0-.44-1.7,20.48,20.48,0,0,0,2.24-5.35,3.8,3.8,0,0,0-4.63-4.63,35.83,35.83,0,0,0-6.77,2.81l-1-2a18.07,18.07,0,0,1,3-4.11h0a7.87,7.87,0,0,0,.59-.76c1.59-2.34-.21-4.9-2.46-5.51l0-.06A17.11,17.11,0,0,1,240,36.65c2.82-1.84,2.11-6.6-1.31-7a4,4,0,0,0-2.58-3.19,9.67,9.67,0,0,1,.9-.86c2-1.88,1.18-4.43-.65-5.65a6.73,6.73,0,0,0,.85-6.39A4,4,0,0,0,234.8,11a21.1,21.1,0,0,0-6.14-7.8c-5.23-4.07-9.75-.13-14.5,2.7a3.5,3.5,0,0,0-1.44,4.71l-3.24,2a4.26,4.26,0,0,0-1.68,4.65,4,4,0,0,0-.88,3.93l-.39.13a3.83,3.83,0,0,0-2.25,5.53,24.36,24.36,0,0,1,1.21,2.6l.06.21-.73.52A9.32,9.32,0,0,0,201,33.89a5.27,5.27,0,0,0-.49,1.59,3.93,3.93,0,0,0-.8.56,5,5,0,0,0-.4-.35,27.67,27.67,0,0,0-.86-3.67,3.64,3.64,0,0,0-3.67-2.67,5,5,0,0,0-.53-.83,15.08,15.08,0,0,0-.58-2.46,4.09,4.09,0,0,0-3.55-2.71c-.23-.51-.47-1-.74-1.53A3.4,3.4,0,0,0,186,20a6.61,6.61,0,0,0-1.23-1.32,6.5,6.5,0,0,0-5.26-1.36,15.42,15.42,0,0,0-18.43-1.46c-3.49,2.23-1.33,8.16,2.9,6.88a14,14,0,0,1,2.91-.56,5.43,5.43,0,0,1-1.24,2.34,32.75,32.75,0,0,0-2.89,4.1c-2.29,4.11.26,6.4,3.45,8A15.58,15.58,0,0,0,164.86,39a3.88,3.88,0,0,0,3,5.66,10.31,10.31,0,0,0,.61,3.73l-2.06,3.52a3.81,3.81,0,0,0,4.25,5.53,3,3,0,0,1,1-.16,7.19,7.19,0,0,0,.63,1.37l-1.11,1c-2,1.77-1.13,5.86,1.66,6.29h0l-.08.18a4.3,4.3,0,0,0-.34,2.81c-1.08.85-2.14,1.74-3.17,2.67-3.6,3.26,1.74,8.58,5.33,5.33A44.57,44.57,0,0,1,180,72.74a3.76,3.76,0,0,0,.69-5.89l.87-1.93a4.63,4.63,0,0,0-.29-4.32c1.42-1.95.47-5.37-2.08-5.82l-.35-.35A3.67,3.67,0,0,0,177,51.16c-.36-.18-.72-.33-1.07-.47l.13-.22a3.77,3.77,0,0,0,0-3.8c-.91-1.47-.71-2.43.28-3.79a3.61,3.61,0,0,0-.88-4.77c1.55-1.68,1.79-4.84-.66-5.93-1.12-.5-3-1-4.44-1.66.91-1.26,2.37-2.82,2.77-3.4A8.05,8.05,0,0,0,174.33,25c.29-.93-.08-1.55.44-2.12a7,7,0,0,1,.84.9,4.44,4.44,0,0,0,4.2,1.8,2,2,0,0,0,0,.77c-.43,2.72,2.05,5.7,4.81,4.62,0,.11,0,.21.06.33a3.31,3.31,0,0,0,3,2.66,3.36,3.36,0,0,0,.73.66l.39,2.74A3.09,3.09,0,0,0,192.49,40a4,4,0,0,0,1.9,2.1,2.81,2.81,0,0,1-.08.58c-.28,2.85,2.71,4.17,5,3.45a3.86,3.86,0,0,0,4.31-.39,3.8,3.8,0,0,0,4.93-.34A5.87,5.87,0,0,0,210,39.71c-.19-.71-1.44-2.16-1.42-2.74q-.61-.63,0-.22l2.14-1.51c3.24-2.42,3-5.19,1.86-8.1a27.07,27.07,0,0,0,3.67-2A4.17,4.17,0,0,0,218,20.47a4.1,4.1,0,0,0,.78-4.72l3.54-2.27a4,4,0,0,0,1.76-4.33c.36.14.71.58,1.39,1.3a13.53,13.53,0,0,1,2.39,3.49,21.63,21.63,0,0,0-2.57,2.57c-1.89,2.24-.89,6.52,2.51,6.43a6.6,6.6,0,0,0,.84,1.18,6.81,6.81,0,0,0-.54,5.71,6.65,6.65,0,0,0,3.77,3.88,24.69,24.69,0,0,0-3.82,5,3.8,3.8,0,0,0,2.6,5.6,11.62,11.62,0,0,0-1.34,3.29c-.7,3.23,2.74,7.33,4.18,10a3.86,3.86,0,0,0,4.76,1.58A3.36,3.36,0,0,0,240,61.88l.14.07a22.54,22.54,0,0,1-1.6,6.56c-1,2.48,1.47,4.56,3.63,4.77l8.29.78C255.29,74.52,255.26,67,250.47,66.53Z"/></svg>