<?xml version="1.0" encoding="utf-8"?>
<!-- Generator: Adobe Illustrator 21.1.0, SVG Export Plug-In . SVG Version: 6.00 Build 0)  -->
<svg version="1.1" id="Calque_1" xmlns="http://www.w3.org/2000/svg" xmlns:xlink="http://www.w3.org/1999/xlink" x="0px" y="0px"
	 viewBox="0 0 470.5 164.1" style="enable-background:new 0 0 470.5 164.1;" xml:space="preserve">
<style type="text/css">
	.st0{fill:#FFFFFF;}
</style>
<g>
	<g>
		<path class="st0" d="M6.9,85c-0.3-1.1-0.7-2.8-1.1-4.9c-0.5-2.1-1-4.5-1.5-7s-1-5.2-1.5-8c-0.5-2.8-1-5.5-1.4-8.2s-0.8-5.1-1-7.3
			C0.1,47.3,0,45.5,0,44.1c0-0.6,0.1-1.7,0.2-3.3c0.1-1.6,0.4-3.2,0.6-4.9c0.3-1.7,0.5-3.3,0.8-4.8c0.2-1.5,0.5-2.5,0.7-3.1
			c0.2-0.1,0.6-0.1,1.1-0.1s1.1,0,1.7-0.1c0.6-0.1,1.2-0.1,1.7-0.2c0.5,0,0.9-0.1,1.1-0.1c3.4,0,6.6,0.7,9.7,2
			c3.1,1.3,6,3.1,8.7,5.1c2.8,2.1,5.5,4.4,8.1,6.9c2.6,2.6,5.3,5,7.9,7.5c2.7,2.4,5.4,4.6,8.1,6.5c2.8,2,5.7,3.4,8.8,4.4
			c0-0.4,0-0.9,0.1-1.6c0-0.7,0.1-1.5,0.1-2.4s0-1.6,0.1-2.4c0-0.7,0.1-1.3,0.1-1.6c0-4.5-0.3-8.8-0.9-13.1
			c-0.6-4.3-1.2-8.5-1.9-12.8c-0.7-4.3-1.3-8.5-1.9-12.8C54.4,9,54.1,4.5,54.1,0c0.5,0,1.1,0,1.9,0.1c0.7,0,1.5,0.1,2.3,0.3
			c0.8,0.2,1.5,0.5,2.1,0.9c0.6,0.4,1.1,1,1.3,1.8c0.3,5.1,0.9,10.2,1.9,15.4c1,5.1,2,10.3,3.1,15.4c1.1,5.1,2,10.3,2.8,15.4
			c0.8,5.1,1.2,10.2,1.2,15.3c0,0.9,0,1.9-0.1,3c0,1.1-0.2,2.1-0.4,3c-0.2,1-0.7,1.8-1.2,2.4c-0.6,0.6-1.4,1-2.6,1
			c-3.7,0-7.1-0.8-10.2-2.5c-3.1-1.7-6.2-3.7-9.1-6.2c-2.9-2.5-5.8-5.2-8.6-8.2c-2.8-3-5.7-5.7-8.6-8.2c-2.9-2.5-6-4.6-9.2-6.3
			c-3.2-1.7-6.5-2.6-10.2-2.6c0,4,0.3,7.8,0.9,11.4c0.6,3.7,1.2,7.3,1.9,10.9c0.7,3.6,1.3,7.2,1.9,10.8C15.7,76.7,16,80.3,16,84
			c0,1.3-0.5,2.3-1.4,2.8c-1,0.5-2,0.7-3.1,0.7c-0.9,0-1.8-0.1-2.6-0.3C8,87.1,7.3,86.3,6.9,85z"/>
		<path class="st0" d="M75.2,60c0-3.8,0.5-7.7,1.4-11.5c0.9-3.8,2.4-7.3,4.4-10.3c2-3.1,4.6-5.5,7.9-7.5c3.2-1.9,7.1-2.9,11.8-2.9
			c2.6,0,4.9,0.5,6.9,1.4c2,1,3.7,2.2,5,3.8c1.3,1.6,2.4,3.4,3,5.5c0.7,2.1,1,4.3,1,6.5c0,3.6-0.8,7.1-2.5,10.5
			c-1.7,3.4-3.9,6.4-6.7,9c-2.8,2.6-6,4.5-9.6,5.9c-3.6,1.3-7.3,1.6-11.1,0.9c0.1,2.1,0.8,3.7,2.1,4.9c1.3,1.2,2.9,2.2,4.7,2.8
			c1.8,0.6,3.8,1,5.7,1.2c2,0.2,3.8,0.3,5.3,0.3c1.6,0,3.2-0.1,4.6-0.4c1.4-0.3,2.8-0.6,4.3-1c1.4-0.4,2.9-0.7,4.3-1
			c1.5-0.3,3-0.4,4.6-0.4c0.6,0,1.3,0,1.9,0.1c0.6,0.1,1.2,0.2,1.8,0.5c0.6,0.2,1,0.6,1.4,1.2c0.4,0.5,0.5,1.2,0.5,2
			c0,1.3-0.5,2.5-1.5,3.4c-1,0.9-2.3,1.6-3.8,2.3c-1.5,0.6-3.2,1.1-5.1,1.4c-1.8,0.3-3.6,0.6-5.4,0.7c-1.7,0.2-3.3,0.3-4.8,0.3
			c-1.5,0-2.5,0.1-3.2,0.1c-4.5,0-8.6-0.7-12.2-2.2c-3.6-1.5-6.7-3.5-9.2-6.1c-2.5-2.6-4.4-5.7-5.7-9.4C75.8,68.6,75.2,64.5,75.2,60
			z M86.4,53.1c0,2.5,0.3,4.3,1,5.4c0.7,1.1,2.3,1.7,4.9,1.7c1.8,0,3.7-0.3,5.4-1c1.8-0.7,3.4-1.6,4.8-2.8c1.5-1.2,2.6-2.6,3.5-4.3
			c0.9-1.6,1.3-3.4,1.3-5.3c0-1.1-0.1-2.2-0.3-3.3c-0.2-1.1-0.6-2.2-1.1-3.1c-0.6-1-1.3-1.7-2.2-2.3c-0.9-0.6-2-0.9-3.5-0.9
			c-2.1,0-4.1,0.5-5.8,1.4c-1.7,1-3.2,2.2-4.4,3.7c-1.2,1.5-2.1,3.2-2.8,5.1C86.8,49.3,86.4,51.2,86.4,53.1z M103.7,8.4l-11.5,17
			c-0.9,1-1.7,1.4-2.6,1.3c-0.9-0.1-1.5-0.5-2-1.2c-0.5-0.7-0.7-1.5-0.7-2.6c0-1,0.3-2,1.1-3c0.2-0.2,0.4-0.5,0.7-0.9
			c0.2-0.4,0.4-0.7,0.5-0.8c0.7-1.1,1.5-2.4,2.4-3.8c0.9-1.4,1.9-2.7,2.9-4c1-1.2,2-2.3,2.9-3.3s1.9-1.6,2.7-1.9s1.6-0.2,2.2,0.2
			C102.9,5.8,103.4,6.8,103.7,8.4z"/>
		<path class="st0" d="M134.5,68c0-4.4,1-8.5,3.1-12.3c2.1-3.8,4.8-7.1,8.1-9.8c3.4-2.7,7.2-4.9,11.4-6.4c4.2-1.6,8.5-2.3,12.8-2.3
			c2.4,0,4.6,0.8,6.4,2.3c1.9,1.6,3.5,3.5,4.7,5.7s2.3,4.6,2.9,7.1c0.7,2.5,1,4.6,1,6.5c0,4-1,7.8-2.9,11.5s-4.4,7-7.5,9.9
			c-3.1,2.9-6.5,5.2-10.3,7c-3.8,1.8-7.7,2.7-11.5,2.7c-3.4,0-6.3-0.6-8.6-1.8s-4.2-2.7-5.6-4.7c-1.4-2-2.5-4.3-3.1-6.9
			C134.9,73.8,134.5,71,134.5,68z M143.6,69.1c0,1.8,0.2,3.5,0.5,4.8s0.9,2.6,1.7,3.6c0.8,1,1.9,1.8,3.2,2.3c1.3,0.5,3,0.8,5,0.8
			c2.6,0,5.3-0.7,7.9-2.2c2.6-1.5,5-3.3,7.1-5.5c2.1-2.2,3.8-4.7,5.1-7.4c1.3-2.7,1.9-5.3,1.9-7.9c0-1.1-0.1-2.4-0.3-3.7
			c-0.2-1.3-0.6-2.6-1.1-3.7c-0.5-1.1-1.2-2.1-2.1-2.9c-0.9-0.8-2.1-1.2-3.5-1.2c-1.3,0-2.8,0.4-4.5,1.3c-1.7,0.9-3.5,2-5.4,3.3
			c-1.9,1.3-3.7,2.9-5.5,4.6s-3.5,3.4-4.9,5.1s-2.7,3.3-3.6,4.9C144,66.8,143.6,68.1,143.6,69.1z"/>
		<path class="st0" d="M189.3,53.8c0-1.8,0.5-3.2,1.4-4c0.9-0.8,2.4-1.2,4.5-1.2h1.1c0.2,1.1,0.5,2.4,0.7,3.9c0.3,1.5,0.7,3,1.3,4.6
			c0.6,1.6,1.2,3,2,4.3c0.8,1.3,1.7,2.4,2.9,3.1c0.1-2.5,0.7-4.9,1.9-7.2c1.2-2.3,2.6-4.4,4.4-6.2c1.7-1.8,3.7-3.3,5.7-4.6
			c2.1-1.2,4.2-2.1,6.2-2.5h2.3c3.4,0,6.3,0.8,8.7,2.3c2.4,1.5,4.4,3.5,6,6c1.6,2.4,2.8,5.2,3.7,8.4c0.9,3.1,1.5,6.3,2,9.5
			c0.5,3.2,0.7,6.4,0.9,9.4c0.1,3,0.2,5.6,0.2,7.7h-7.8c-0.4-4.3-1-8.3-1.6-12.2c-0.2-1.6-0.5-3.2-0.9-4.9c-0.4-1.7-0.7-3.4-1.2-4.9
			c-0.4-1.5-0.9-2.9-1.4-4.3c-0.5-1.3-1.1-2.4-1.7-3.4c-0.3-0.3-0.7-0.7-1.1-1.2c-0.5-0.5-0.9-1-1.4-1.5c-0.5-0.5-1-0.9-1.4-1.3
			c-0.4-0.4-0.7-0.5-0.7-0.5c-2.1-0.6-4-0.2-5.5,1.2c-1.6,1.4-2.9,3.2-4.2,5.6c-1.2,2.3-2.2,5-2.9,8s-1.4,5.8-1.9,8.6
			c-0.5,2.7-0.9,5.1-1.1,7.1s-0.4,3.2-0.4,3.7c-1.8,1.3-3.4,1.6-5,1.1c-1.6-0.5-3-1.6-4.4-3.4s-2.6-3.8-3.7-6.4
			c-1.1-2.6-2.1-5.3-3-8.1c-0.9-2.9-1.8-5.8-2.5-8.7C190.5,58.9,189.8,56.2,189.3,53.8z"/>
		<path class="st0" d="M271.3,84.8c1.1-0.8,2.5-1.8,4.1-3c1.6-1.2,3.2-2.6,4.8-4c1.6-1.4,3.2-2.9,4.6-4.5c1.4-1.6,2.5-3.1,3.4-4.5
			c0.8-1.5,1.2-2.8,1.2-4.1s-0.6-2.3-1.9-3.2c-2.3,0-4.8,0.1-7.5,0.3c-2.7,0.2-5.4,0.2-8.1,0.2c-2.7,0-5.3-0.3-7.8-0.7
			c-2.5-0.4-4.8-1.2-6.8-2.3c-2-1.1-3.6-2.7-4.7-4.8c-1.2-2.1-1.8-4.8-1.8-8c0-3.8,0.7-7.3,2.2-10.4c1.5-3.1,3.4-5.8,5.8-8.2
			c2.4-2.4,5.1-4.5,8.1-6.3c3-1.8,6-3.4,9.1-4.6c1.8,0.5,3.5,1.4,5.1,2.7c1.6,1.3,2.9,2.7,4,4.3c-0.5,1.6-1.5,2.8-2.9,3.6
			c-1.5,0.9-3.1,1.6-5,2.2c-1.9,0.6-3.8,1.3-5.9,2c-2.1,0.7-3.9,1.6-5.6,2.8c-1.7,1.2-3.1,2.7-4.2,4.6c-1.1,1.9-1.7,4.3-1.7,7.4
			c0,2.3,0.6,3.9,1.7,5c1.1,1.1,2.6,1.8,4.5,2.2c1.8,0.4,3.9,0.5,6.3,0.4s4.7-0.3,7.2-0.5c2.4-0.2,4.8-0.3,7.2-0.4
			c2.3,0,4.4,0.2,6.3,0.9c1.8,0.6,3.3,1.6,4.4,2.9c1.1,1.3,1.6,3.3,1.6,6c0,1.1-0.4,2.6-1.1,4.4c-0.7,1.8-1.7,3.7-3,5.7
			c-1.2,2-2.7,4-4.4,6c-1.7,2-3.4,3.8-5.2,5.4c-1.8,1.6-3.6,2.9-5.4,3.9c-1.8,1-3.5,1.5-5.1,1.5c-1.5,0-2.5-0.5-2.9-1.6
			C271.6,87,271.3,85.9,271.3,84.8z"/>
	</g>
	<g>
		<path class="st0" d="M9.5,116.7c0-0.9,0-2.3,0.1-4.2c0-2,0.1-4,0.1-6.2c0-2.2,0-4.2,0.1-6.1c0-1.9,0.1-3.3,0.1-4
			c0.1-0.5,0.2-1.3,0.5-2.3c0.3-1,0.6-2,1-3c0.4-1,0.9-1.9,1.6-2.6c0.7-0.7,1.5-1.1,2.5-1.1c2.3,0,4.5,0.6,6.6,1.9
			c2.1,1.3,4,3,6,5.1c1.9,2.1,3.7,4.4,5.5,7c1.7,2.6,3.5,5.1,5.2,7.6c1.7,2.5,3.4,4.9,5,7.1c1.6,2.2,3.3,4,4.9,5.4
			c1.8-0.8,3.2-2.2,4.2-4.3c1-2.1,1.8-4.5,2.4-7.2c0.6-2.7,1.2-5.6,1.8-8.5c0.5-2.9,1.3-5.7,2.2-8.1c0.9-2.5,2.1-4.5,3.7-6.1
			c1.5-1.6,3.6-2.4,6.3-2.4c3.2,0,6.1,1.2,8.7,3.7c2.6,2.5,4.9,5.6,7,9.5c2.1,3.8,3.8,8.1,5.3,12.8c1.5,4.7,2.7,9.2,3.7,13.5
			c1,4.3,1.7,8.2,2.2,11.7c0.5,3.5,0.7,6,0.7,7.5c0,0.6,0,1.3-0.1,2.1c-0.1,0.7-0.2,1.4-0.5,2c-0.3,0.6-0.7,1.1-1.4,1.4
			c-0.6,0.3-1.6,0.3-2.8-0.1c-0.4-0.1-0.8-0.3-1.2-0.6c-0.5-0.3-0.9-0.7-1.4-1.2c-0.5-0.5-0.9-1-1.3-1.4c-0.4-0.5-0.5-0.9-0.5-1.2
			c-0.6-3.5-1.3-7.3-2.1-11.6c-0.8-4.3-1.8-8.6-2.9-12.9c-1.2-4.4-2.6-8.6-4.4-12.7c-1.8-4.1-4-7.7-6.6-10.6
			c-2.1,1.1-3.7,2.9-4.8,5.2c-1.2,2.3-2.1,4.8-2.9,7.6c-0.8,2.7-1.5,5.5-2.1,8.4c-0.6,2.8-1.5,5.4-2.6,7.7c-1.1,2.3-2.4,4.2-4,5.7
			c-1.6,1.5-3.8,2.2-6.6,2.2c-1.9,0-3.8-0.6-5.6-1.9c-1.8-1.2-3.6-2.9-5.3-4.9c-1.7-2-3.4-4.3-4.9-6.7c-1.6-2.4-3.2-4.9-4.7-7.2
			c-1.5-2.4-3-4.6-4.5-6.7c-1.5-2.1-2.9-3.7-4.4-4.9c-0.6,2.2-1,4.1-1.3,5.8c-0.3,1.7-0.6,3.3-0.7,4.8c-0.2,1.6-0.3,3.2-0.3,4.8
			c0,1.6-0.1,3.4-0.1,5.4c0,3,0.2,5.9,0.7,8.9c0.5,2.9,1,5.9,1.6,8.8c0.6,2.9,1.1,5.8,1.6,8.8c0.5,2.9,0.8,5.9,0.8,8.9v0.9
			c-0.1,0.2-0.4,0.6-0.9,1c-0.4,0.5-0.9,0.9-1.3,1.4c-0.5,0.5-0.9,0.9-1.4,1.3c-0.5,0.4-0.9,0.7-1.1,0.8c-0.1,0.1-0.2,0.1-0.4,0.1
			c-0.2,0.1-0.4,0.1-0.6,0.1c-0.1,0-0.3,0-0.5-0.1c-0.2-0.1-0.4-0.1-0.5-0.1c-0.5-4.1-1-8-1.6-11.7c-0.6-3.7-1.1-7.3-1.5-11
			c-0.5-3.6-0.9-7.3-1.2-11C9.7,124.9,9.5,120.9,9.5,116.7z"/>
		<path class="st0" d="M103,118.8c0-0.4,0-1.2,0.1-2.3c0-1.1,0.1-2.3,0.1-3.5c0-1.2,0-2.3,0.1-3.4c0-1,0.1-1.8,0.1-2.2
			c0.5-0.9,1.1-1.7,1.8-2.5c0.7-0.8,1.4-1.4,2.1-1.7s1.6-0.4,2.4-0.2c0.9,0.2,1.8,0.9,2.7,2.1v0.9v1.4c-0.1,0.4-0.2,1.2-0.4,2.5
			c-0.2,1.3-0.5,2.8-0.7,4.3c-0.3,1.6-0.6,3-0.8,4.3c-0.2,1.3-0.4,2.1-0.4,2.5c0,1.3,0.1,3,0.4,5.1c0.3,2,0.7,4.1,1.2,6.3
			c0.5,2.2,1.2,4.4,2,6.6c0.8,2.2,1.8,4.2,2.9,5.9c1.1,1.7,2.4,3.2,3.8,4.3c1.4,1.1,3,1.7,4.8,1.7c2.3,0,4.3-0.6,6-1.8
			c1.7-1.2,3.2-2.8,4.5-4.7s2.3-4.1,3.1-6.5c0.8-2.4,1.5-4.8,2-7.3c0.5-2.4,0.9-4.8,1.1-7.1c0.2-2.3,0.3-4.3,0.3-6s-0.1-3.3-0.4-4.8
			c-0.2-1.5-0.6-3-0.9-4.5c-0.4-1.5-0.7-3-0.9-4.4c-0.2-1.5-0.4-2.9-0.4-4.4c0-1.3,0.5-2.3,1.4-2.9c1-0.6,2-0.9,3.2-0.9
			c1.5,0,2.7,0.4,3.6,1.3c0.9,0.9,1.6,2,2.2,3.4c0.5,1.3,0.9,2.9,1.1,4.6c0.2,1.7,0.3,3.5,0.3,5.2s0,3.3-0.1,4.8
			c-0.1,1.5-0.1,2.8-0.1,3.7c0,2.4-0.2,5.1-0.5,8.2c-0.4,3.1-1,6.2-1.9,9.4c-0.9,3.2-2,6.4-3.3,9.5c-1.3,3.1-2.9,5.9-4.8,8.4
			c-1.9,2.4-4,4.4-6.5,5.9s-5.2,2.2-8.2,2.2c-3.2,0-6-0.8-8.4-2.3c-2.4-1.5-4.5-3.5-6.1-6.1c-1.7-2.5-3.1-5.4-4.2-8.6
			c-1.1-3.2-2-6.4-2.6-9.6c-0.6-3.2-1-6.3-1.3-9.3C103.1,123.6,103,121,103,118.8z"/>
		<path class="st0" d="M155.3,108.6c0-0.2,0-0.4,0.1-0.5c0-0.1,0-0.3,0.1-0.5c0.3-0.4,0.7-0.8,1.3-1.4c0.6-0.6,0.9-0.9,1.1-0.9h21.4
			c0-0.8-0.1-2-0.3-3.7s-0.4-3.6-0.6-5.6c-0.2-2.1-0.2-4.2-0.2-6.4c0.1-2.2,0.4-4.3,0.9-6.1s1.4-3.3,2.6-4.5s2.8-1.8,4.9-1.8
			c0,7.2,0.5,12.9,1.5,17.2c1,4.3,2.3,7.7,4,10c1.7,2.3,3.6,3.9,5.7,4.6c2.1,0.7,4.3,1,6.5,0.9s4.4-0.4,6.5-1c2.1-0.6,4-1,5.7-1.2
			c1.7-0.2,3-0.1,4,0.5c1,0.5,1.5,1.8,1.5,3.8c0,1.5-0.3,2.6-1,3.2c-0.7,0.6-2,1.1-3.9,1.5c-0.6,0.1-1.5,0.2-2.8,0.4
			c-1.3,0.2-2.8,0.3-4.4,0.5c-1.6,0.1-3.4,0.3-5.2,0.5c-1.8,0.2-3.6,0.3-5.2,0.5c-1.6,0.1-3.1,0.2-4.5,0.3c-1.3,0-2.3,0.1-3,0.1
			c0,0.4,0,1-0.1,1.8c-0.1,0.9-0.1,1.4-0.1,1.7c0,3.1,0.5,6.2,1.5,9.1c1,2.9,2.1,5.9,3.2,8.8c1.2,2.9,2.3,5.8,3.2,8.7
			c1,2.9,1.5,5.9,1.5,9c0,0.6-0.1,1.2-0.2,1.8c-0.1,0.6-0.3,1.1-0.6,1.6c-0.3,0.5-0.8,0.8-1.4,1.1c-0.6,0.2-1.4,0.2-2.5-0.2
			c-2.7-0.7-4.7-2.2-6-4.6c-1.3-2.3-2.3-5.1-2.9-8.4c-0.6-3.2-1.1-6.7-1.3-10.3s-0.6-7-1-10.2c-0.5-3.2-1.2-5.9-2.2-8.1
			c-1-2.2-2.6-3.6-4.8-4.1l-20.5-4.7c-0.3,0-0.7-0.3-1.3-0.9c-0.6-0.6-0.9-1-1.1-1.3c-0.1-0.1-0.1-0.3-0.1-0.5
			C155.4,109.1,155.3,108.9,155.3,108.6z"/>
		<path class="st0" d="M271.9,148.5c-2.7,1.8-5,3.5-7,5c-2,1.5-3.8,2.7-5.7,3.7c-1.8,1-3.8,1.7-5.9,2.2c-2.1,0.5-4.7,0.7-7.7,0.7
			c-6.6,0-11.5-1.8-14.7-5.3c-3.2-3.5-4.8-8.7-4.8-15.7c0-2.7,0.4-5.5,1.1-8.4c0.7-2.9,1.8-5.8,3.1-8.7c1.4-2.9,3-5.6,4.9-8.2
			c1.9-2.6,4.1-4.9,6.5-6.9c2.4-2,5-3.6,7.7-4.7c2.7-1.2,5.6-1.8,8.7-1.8c5.1,0.5,9.1,1.8,12,3.8c2.9,2,5.1,4.6,6.6,7.8
			c1.5,3.2,2.5,6.7,3.1,10.5c0.6,3.9,1,7.9,1.3,12c0.3,4.1,0.7,8.2,1.2,12.3c0.5,4.1,1.5,7.9,3.1,11.4c-0.9,2.3-1.8,4-2.6,5
			c-0.8,1-1.7,1.1-2.7,0.5c-1-0.6-2.1-2.2-3.5-4.7C275.4,156.6,273.8,153,271.9,148.5z M235.2,139.3c0,4,0.8,7,2.3,8.9
			c1.5,1.9,4.2,2.8,8.1,2.8c2.9,0,5.7-0.5,8.4-1.5c2.7-1,5-2.4,7-4.3c2-1.8,3.6-4,4.8-6.5c1.2-2.6,1.8-5.4,1.8-8.5
			c0-1.3,0-3.1,0.1-5.4c0.1-2.3-0.1-4.6-0.4-6.9c-0.4-2.3-1-4.2-2-5.9c-1-1.7-2.5-2.5-4.5-2.5c-3.7,0-7.1,0.9-10.2,2.8
			c-3.1,1.9-5.8,4.3-8.1,7.2c-2.3,2.9-4,6.1-5.3,9.6C235.8,132.7,235.2,136.1,235.2,139.3z"/>
		<path class="st0" d="M292.2,126.4c0-1.8,0.5-3.2,1.4-4c0.9-0.8,2.4-1.2,4.5-1.2h1.1c0.2,1.1,0.5,2.4,0.7,3.9
			c0.3,1.5,0.7,3,1.3,4.6c0.6,1.6,1.2,3,2,4.3c0.8,1.3,1.7,2.4,2.9,3.1c0.1-2.5,0.7-4.9,1.9-7.2c1.2-2.3,2.6-4.4,4.4-6.2
			c1.7-1.8,3.7-3.3,5.7-4.6c2.1-1.2,4.2-2.1,6.2-2.5h2.3c3.4,0,6.3,0.8,8.7,2.3c2.4,1.5,4.4,3.5,6,6c1.6,2.4,2.8,5.2,3.7,8.4
			c0.9,3.1,1.5,6.3,2,9.5c0.5,3.2,0.7,6.4,0.9,9.4c0.1,3,0.2,5.6,0.2,7.7h-7.8c-0.4-4.3-1-8.3-1.6-12.2c-0.2-1.6-0.5-3.2-0.9-5
			c-0.4-1.7-0.7-3.4-1.2-4.9c-0.4-1.5-0.9-2.9-1.4-4.3c-0.5-1.3-1.1-2.4-1.7-3.4c-0.3-0.3-0.7-0.7-1.1-1.2c-0.5-0.5-0.9-1-1.4-1.5
			c-0.5-0.5-1-0.9-1.4-1.3c-0.4-0.4-0.7-0.5-0.7-0.5c-2.1-0.6-4-0.2-5.5,1.2c-1.6,1.4-2.9,3.2-4.2,5.6c-1.2,2.3-2.2,5-2.9,8
			c-0.7,3-1.4,5.8-1.9,8.6c-0.5,2.7-0.9,5.1-1.1,7.1c-0.2,2-0.4,3.2-0.4,3.7c-1.8,1.3-3.4,1.7-5,1.1c-1.6-0.5-3-1.6-4.4-3.4
			c-1.4-1.7-2.6-3.8-3.7-6.4c-1.1-2.6-2.1-5.3-3-8.1c-0.9-2.9-1.8-5.8-2.5-8.7C293.5,131.5,292.8,128.8,292.2,126.4z"/>
		<path class="st0" d="M351.5,108.6c0-0.2,0-0.4,0.1-0.5c0-0.1,0-0.3,0.1-0.5c0.3-0.4,0.7-0.8,1.3-1.4c0.6-0.6,0.9-0.9,1.1-0.9h21.4
			c0-0.8-0.1-2-0.3-3.7s-0.4-3.6-0.6-5.6c-0.2-2.1-0.2-4.2-0.2-6.4c0.1-2.2,0.4-4.3,0.9-6.1c0.5-1.8,1.4-3.3,2.6-4.5
			c1.2-1.2,2.8-1.8,4.9-1.8c0,7.2,0.5,12.9,1.5,17.2c1,4.3,2.3,7.7,4,10c1.7,2.3,3.6,3.9,5.7,4.6c2.1,0.7,4.3,1,6.5,0.9
			c2.2-0.1,4.4-0.4,6.5-1c2.1-0.6,4-1,5.7-1.2c1.7-0.2,3-0.1,4,0.5c1,0.5,1.5,1.8,1.5,3.8c0,1.5-0.3,2.6-1,3.2
			c-0.7,0.6-2,1.1-3.9,1.5c-0.6,0.1-1.5,0.2-2.8,0.4c-1.3,0.2-2.8,0.3-4.4,0.5c-1.6,0.1-3.4,0.3-5.2,0.5c-1.8,0.2-3.6,0.3-5.2,0.5
			c-1.6,0.1-3.1,0.2-4.5,0.3c-1.3,0-2.3,0.1-3,0.1c0,0.4,0,1-0.1,1.8c-0.1,0.9-0.1,1.4-0.1,1.7c0,3.1,0.5,6.2,1.5,9.1
			c1,2.9,2.1,5.9,3.2,8.8c1.2,2.9,2.3,5.8,3.2,8.7c1,2.9,1.5,5.9,1.5,9c0,0.6-0.1,1.2-0.2,1.8c-0.1,0.6-0.3,1.1-0.6,1.6
			c-0.3,0.5-0.8,0.8-1.4,1.1c-0.6,0.2-1.4,0.2-2.5-0.2c-2.7-0.7-4.7-2.2-6-4.6c-1.3-2.3-2.3-5.1-2.9-8.4c-0.6-3.2-1.1-6.7-1.3-10.3
			s-0.6-7-1-10.2c-0.5-3.2-1.2-5.9-2.2-8.1c-1-2.2-2.6-3.6-4.8-4.1l-20.5-4.7c-0.3,0-0.7-0.3-1.3-0.9c-0.6-0.6-0.9-1-1.1-1.3
			c-0.1-0.1-0.1-0.3-0.1-0.5C351.6,109.1,351.5,108.9,351.5,108.6z"/>
		<path class="st0" d="M442.7,157.4c1.1-0.8,2.5-1.8,4.1-3c1.6-1.2,3.2-2.6,4.8-4c1.6-1.4,3.2-2.9,4.6-4.5c1.4-1.6,2.5-3.1,3.4-4.5
			c0.8-1.5,1.2-2.8,1.2-4.1s-0.6-2.3-1.9-3.2c-2.3,0-4.8,0.1-7.5,0.3c-2.7,0.2-5.4,0.3-8.1,0.2c-2.7,0-5.3-0.3-7.8-0.7
			c-2.5-0.4-4.8-1.2-6.8-2.3c-2-1.1-3.6-2.7-4.7-4.8c-1.2-2.1-1.8-4.8-1.8-8c0-3.8,0.7-7.3,2.2-10.4c1.5-3.1,3.4-5.8,5.8-8.2
			c2.4-2.4,5.1-4.5,8.1-6.3c3-1.8,6-3.4,9.1-4.6c1.8,0.5,3.5,1.4,5.1,2.7c1.6,1.3,2.9,2.7,4,4.3c-0.5,1.6-1.5,2.8-2.9,3.6
			c-1.5,0.9-3.1,1.6-5,2.2c-1.9,0.6-3.8,1.3-5.9,2c-2.1,0.7-3.9,1.6-5.6,2.8c-1.7,1.2-3.1,2.7-4.2,4.6c-1.1,1.9-1.7,4.3-1.7,7.4
			c0,2.3,0.6,3.9,1.7,5c1.1,1.1,2.6,1.8,4.5,2.2c1.8,0.4,3.9,0.5,6.3,0.4c2.3-0.1,4.7-0.3,7.2-0.5c2.4-0.2,4.8-0.3,7.2-0.4
			c2.3,0,4.4,0.2,6.3,0.9c1.8,0.6,3.3,1.6,4.4,2.9c1.1,1.3,1.6,3.3,1.6,6c0,1.1-0.4,2.6-1.1,4.4c-0.7,1.8-1.7,3.7-3,5.7
			c-1.2,2-2.7,4-4.4,6c-1.7,2-3.4,3.8-5.2,5.4c-1.8,1.6-3.6,2.9-5.4,3.9c-1.8,1-3.5,1.5-5.1,1.5c-1.5,0-2.5-0.5-2.9-1.6
			C443,159.6,442.7,158.5,442.7,157.4z"/>
	</g>
</g>
</svg>
