<svg width="177" height="48" viewBox="0 0 177 48" fill="none" xmlns="http://www.w3.org/2000/svg">
<path d="M6.78176 0.968501V17.1038C6.78176 19.2909 6.96261 21.0986 7.3243 22.5269C7.686 23.9106 8.22854 25.0041 8.95193 25.8075C9.72053 26.611 10.67 27.1689 11.8003 27.4813C12.9758 27.7938 14.3321 27.95 15.8693 27.95C17.4517 27.95 18.8533 27.7938 20.074 27.4813C21.2947 27.1689 22.312 26.611 23.1258 25.8075C23.9396 25.0041 24.55 23.9552 24.9569 22.6608C25.409 21.3218 25.6351 19.648 25.6351 17.6394V0.968501H32.0777V47.9016H3.32306V41.5412H25.4316V30.4272H25.296C24.6178 31.4538 23.3971 32.3465 21.6338 33.1053C19.9158 33.864 17.9717 34.2434 15.8015 34.2434C13.993 34.2434 12.1394 34.0649 10.2405 33.7078C8.38678 33.3507 6.69134 32.592 5.15414 31.4315C3.61694 30.271 2.37362 28.5972 1.42417 26.4101C0.474723 24.1784 0 21.2325 0 17.5725V0.968501H6.78176Z" fill="#FF57BC"/>
<path d="M45.0632 10.8104C45.1536 11.6584 45.6736 12.328 46.623 12.8189C47.5725 13.3099 48.748 13.7563 50.1495 14.158C51.5963 14.515 53.1335 14.9167 54.7611 15.3631C56.3888 15.7648 57.9034 16.345 59.3049 17.1038C60.7065 17.8626 61.8594 18.8669 62.7636 20.1166C63.7131 21.3218 64.1878 22.9063 64.1878 24.8702C64.1878 26.0753 63.9391 27.2582 63.4418 28.4186C62.9897 29.5791 62.2437 30.628 61.2038 31.5654C60.1639 32.4581 58.8076 33.1945 57.1348 33.7748C55.5071 34.355 53.5404 34.6451 51.2346 34.6451C49.3809 34.6451 47.6403 34.3773 46.0127 33.8417C44.4303 33.2615 43.0287 32.4804 41.808 31.4984C40.5873 30.4718 39.5926 29.289 38.824 27.95C38.1006 26.5663 37.6711 25.0711 37.5355 23.4642H44.5207C44.6563 24.1337 44.8598 24.8033 45.131 25.4728C45.4475 26.1423 45.877 26.7449 46.4196 27.2805C47.0073 27.8161 47.7307 28.2401 48.5897 28.5525C49.4488 28.865 50.4886 29.0212 51.7093 29.0212C53.2013 29.0212 54.3542 28.865 55.168 28.5525C56.0271 28.1955 56.66 27.7938 57.0669 27.3474C57.4738 26.9011 57.7225 26.4994 57.8129 26.1423C57.9034 25.7406 57.9486 25.4951 57.9486 25.4058C58.039 23.9329 57.6321 22.8393 56.7279 22.1252C55.8236 21.411 54.6481 20.8531 53.2013 20.4514C51.7998 20.0051 50.2626 19.648 48.5897 19.3802C46.9169 19.0677 45.3571 18.5991 43.9103 17.9742C42.4635 17.3493 41.2428 16.4566 40.2482 15.2961C39.2987 14.1356 38.824 12.5288 38.824 10.4756C38.824 9.2705 39.0275 8.11 39.4344 6.99414C39.8865 5.87828 40.5647 4.87401 41.4689 3.98132C42.4183 3.08863 43.6164 2.37448 45.0632 1.83887C46.51 1.30326 48.2506 1.03545 50.2852 1.03545C51.958 1.03545 53.563 1.23631 55.1002 1.63802C56.6374 2.03973 57.9938 2.66461 59.1693 3.51266C60.3448 4.31608 61.2716 5.36499 61.9498 6.65938C62.6732 7.90915 63.0349 9.38208 63.0349 11.0782H56.2531C56.1627 10.5426 56.0045 10.0293 55.7784 9.5383C55.5523 9.00269 55.2133 8.53403 54.7611 8.13232C54.3542 7.73061 53.7891 7.39585 53.0657 7.12805C52.3875 6.86024 51.5285 6.70402 50.4886 6.65938C49.3131 6.61475 48.3637 6.74865 47.6403 7.06109C46.9169 7.3289 46.3518 7.68597 45.9448 8.13232C45.5832 8.57866 45.3345 9.04732 45.1989 9.5383C45.0632 10.0293 45.018 10.4533 45.0632 10.8104Z" fill="#FF57BC"/>
<path d="M75.7253 0.968501V17.1038C75.7253 19.2909 75.9061 21.0986 76.2678 22.5269C76.6295 23.9106 77.172 25.0041 77.8954 25.8075C78.664 26.611 79.6135 27.1689 80.7438 27.4813C81.9193 27.7938 83.2756 27.95 84.8128 27.95C86.3952 27.95 87.7968 27.7938 89.0175 27.4813C90.2382 27.1689 91.2555 26.611 92.0693 25.8075C92.8831 25.0041 93.4935 23.9552 93.9004 22.6608C94.3525 21.3218 94.5786 19.648 94.5786 17.6394V0.968501H101.021V47.9016H72.2666V41.5412H94.3751V30.4272H94.2395C93.5613 31.4538 92.3406 32.3465 90.5773 33.1053C88.8593 33.864 86.9152 34.2434 84.745 34.2434C82.9365 34.2434 81.0829 34.0649 79.184 33.7078C77.3303 33.3507 75.6348 32.592 74.0976 31.4315C72.5604 30.271 71.3171 28.5972 70.3677 26.4101C69.4182 24.1784 68.9435 21.2325 68.9435 17.5725V0.968501H75.7253Z" fill="#FF57BC"/>
<path d="M138.557 47.9016H109.938V41.5412H132.182V30.628H132.046C131.368 31.6546 130.102 32.5027 128.248 33.1722C126.44 33.8417 124.451 34.1765 122.28 34.1765C120.472 34.1765 118.618 33.9979 116.719 33.6409C114.866 33.2838 113.17 32.525 111.633 31.3645C110.096 30.204 108.853 28.5302 107.903 26.3431C106.954 24.1114 106.479 21.1656 106.479 17.5055C106.479 13.8009 106.954 10.855 107.903 8.66793C108.898 6.48085 110.141 4.80706 111.633 3.64656C113.17 2.48607 114.866 1.7496 116.719 1.43716C118.618 1.08009 120.472 0.90155 122.28 0.90155C124.586 0.90155 126.643 1.23631 128.452 1.90582C130.26 2.57534 131.526 3.46803 132.25 4.58388H132.453V0.90155H138.557V47.9016ZM122.552 27.8161C124.315 27.8161 125.807 27.6822 127.028 27.4144C128.248 27.1019 129.243 26.5886 130.012 25.8745C130.826 25.1157 131.413 24.0668 131.775 22.7278C132.137 21.3887 132.317 19.6926 132.317 17.6394C132.317 15.3185 132.091 13.4661 131.639 12.0825C131.232 10.6988 130.622 9.64989 129.808 8.93574C128.994 8.17695 128 7.68597 126.824 7.4628C125.694 7.23963 124.405 7.12805 122.959 7.12805C121.512 7.12805 120.201 7.21731 119.025 7.39585C117.895 7.57439 116.923 8.02073 116.109 8.73488C115.295 9.4044 114.662 10.4533 114.21 11.8816C113.803 13.2653 113.6 15.1846 113.6 17.6394C113.6 19.8265 113.781 21.5896 114.142 22.9286C114.504 24.223 115.047 25.2496 115.77 26.0084C116.493 26.7225 117.42 27.2135 118.55 27.4813C119.681 27.7045 121.015 27.8161 122.552 27.8161Z" fill="#FF57BC"/>
<path d="M151.424 0.968501V17.1038C151.424 19.2909 151.605 21.0986 151.967 22.5269C152.328 23.9106 152.871 25.0041 153.594 25.8075C154.363 26.611 155.312 27.1689 156.443 27.4813C157.618 27.7938 158.974 27.95 160.512 27.95C162.094 27.95 163.496 27.7938 164.716 27.4813C165.937 27.1689 166.954 26.611 167.768 25.8075C168.582 25.0041 169.192 23.9552 169.599 22.6608C170.051 21.3218 170.277 19.648 170.277 17.6394V0.968501H176.72V47.9016H147.965V41.5412H170.074V30.4272H169.938C169.26 31.4538 168.039 32.3465 166.276 33.1053C164.558 33.864 162.614 34.2434 160.444 34.2434C158.635 34.2434 156.782 34.0649 154.883 33.7078C153.029 33.3507 151.334 32.592 149.796 31.4315C148.259 30.271 147.016 28.5972 146.066 26.4101C145.117 24.1784 144.642 21.2325 144.642 17.5725V0.968501H151.424Z" fill="#FF57BC"/>
<path d="M37.36 41.5332H64.36V47.9015H37.36V41.5332Z" fill="#FF57BC"/>
</svg>
