<?xml version="1.0" encoding="utf-8"?>
<!-- Generator: Adobe Illustrator 15.1.0, SVG Export Plug-In . SVG Version: 6.00 Build 0)  -->
<!DOCTYPE svg PUBLIC "-//W3C//DTD SVG 1.1//EN" "http://www.w3.org/Graphics/SVG/1.1/DTD/svg11.dtd">
<svg version="1.1" id="Calque_1" xmlns="http://www.w3.org/2000/svg" xmlns:xlink="http://www.w3.org/1999/xlink" x="0px" y="0px"
	 width="283.46px" height="141.73px" viewBox="0 0 283.46 141.73" enable-background="new 0 0 283.46 141.73" xml:space="preserve">
<g>
	<path fill-rule="evenodd" clip-rule="evenodd" d="M117.347,81.365c-3.317-0.52-7.033-0.643-10.746-0.768
		c-1.151,17.398,0.384,37.483-0.768,54.881c-1.407,0-2.814,0-4.222,0c-1.774-16.69-0.268-36.712-0.768-54.881
		c-11.923-1.382-25.031-1.578-37.611-2.303c1.946-18.085-3.741-37.917,2.687-49.892c4.067-7.579,12.822-13.7,24.178-14.584
		c10.645-0.828,20.951,0,31.47,0c13.052,0,30.729-2.28,39.914,2.303c6.477,3.232,12.091,10.495,13.048,18.038
		c1.771,13.955-2.323,28.44,0,43.367c0.833,5.356,4.709,11.871,6.908,17.271c2.278,5.593,7.426,13.289,5.757,20.34
		c-2.015,8.512-11.205,12.775-21.108,13.049c-13.837,0.382-29.841-6.037-36.075-16.119
		C124.117,102.536,122.36,90.712,117.347,81.365z M88.18,19.192c-8.714,0.975-17.166,7.56-19.189,15.352
		c-2.717,10.461,1.191,24.766-0.384,38.762c15.794,0.965,31.94,1.577,47.589,2.687c0.656-18.57-2.829-43.464,5.373-53.346
		c0.939-1.132,3.388-2.018,2.687-3.454C111.687,20.085,98.852,17.999,88.18,19.192z M155.341,19.576
		c-13.329-2.976-26.488,0.798-31.086,8.06c-6.778,10.705-0.517,30.962-2.687,48.356c15.992,0,31.982,0,47.973,0
		C168.28,51.409,175.428,24.06,155.341,19.576z M123.104,81.365c0.06,0.452-0.067,1.09,0.383,1.151
		c5.328,9.297,5.951,21.282,12.665,29.167c4.795,5.632,14.786,10.312,24.178,11.13c9.502,0.829,20.813-1.439,21.876-9.211
		c0.786-5.754-3.445-11.816-5.373-16.502c-2.357-5.73-4.324-10.633-6.524-15.735C154.574,81.365,138.838,81.365,123.104,81.365z"/>
</g>
</svg>
