<?xml version="1.0" encoding="utf-8"?>
<!-- Generator: Adobe Illustrator 15.1.0, SVG Export Plug-In . SVG Version: 6.00 Build 0)  -->
<!DOCTYPE svg PUBLIC "-//W3C//DTD SVG 1.1//EN" "http://www.w3.org/Graphics/SVG/1.1/DTD/svg11.dtd">
<svg version="1.1" id="Calque_1" xmlns="http://www.w3.org/2000/svg" xmlns:xlink="http://www.w3.org/1999/xlink" x="0px" y="0px"
	 width="283.46px" height="141.73px" viewBox="0 0 283.46 141.73" enable-background="new 0 0 283.46 141.73" xml:space="preserve">
<g>
	<path fill-rule="evenodd" clip-rule="evenodd" d="M141.655,59.394c14.011-12.878,27.034-26.689,40.638-40.294
		c1.779-1.778,3.83-4.643,6.889-4.477c11.512,3.377-1.879,12.898-5.855,16.875c-11.418,11.418-24.101,24.322-34.439,34.784
		C159.484,77,171.45,89.189,183.326,101.065c2.305,2.304,10.564,8.217,10.677,12.054c0.077,2.65-2.825,5.107-4.821,5.166
		c-4.144,0.121-10.105-8.383-12.398-10.676c-11.756-11.756-23.268-22.767-34.439-34.439c-11.968,10.836-22.701,22.355-34.784,34.439
		c-2.206,2.205-8.73,10.568-12.398,10.676c-2.036,0.061-5.089-2.209-5.166-4.821c-0.12-4.108,8.353-10.075,10.676-12.398
		c11.593-11.593,23.777-23.997,34.439-34.784c-10.6-10.722-22.559-22.904-34.439-34.784c-2.298-2.298-10.563-8.205-10.676-12.054
		c-0.089-3.057,2.509-5.265,5.855-4.822c3.64,0.482,9.716,8.338,12.054,10.676C119.288,36.682,131.211,48.826,141.655,59.394z"/>
</g>
</svg>
