<?xml version="1.0" encoding="UTF-8" standalone="no"?>
<svg
   xmlns:dc="http://purl.org/dc/elements/1.1/"
   xmlns:cc="http://creativecommons.org/ns#"
   xmlns:rdf="http://www.w3.org/1999/02/22-rdf-syntax-ns#"
   xmlns:svg="http://www.w3.org/2000/svg"
   xmlns="http://www.w3.org/2000/svg"
   viewBox="0 0 395.54666 156.21333"
   height="156.21333"
   width="395.54666"
   xml:space="preserve"
   id="svg2"
   version="1.1"><metadata
     id="metadata8"><rdf:RDF><cc:Work
         rdf:about=""><dc:format>image/svg+xml</dc:format><dc:type
           rdf:resource="http://purl.org/dc/dcmitype/StillImage" /></cc:Work></rdf:RDF></metadata><defs
     id="defs6"><clipPath
       id="clipPath20"
       clipPathUnits="userSpaceOnUse"><path
         id="path18"
         d="M 0,1171.64 V 0 h 2966.59 v 1171.64 z" /></clipPath></defs><g
     transform="matrix(1.3333333,0,0,-1.3333333,0,156.21333)"
     id="g10"><g
       transform="scale(0.1)"
       id="g12"><g
         id="g14"><g
           clip-path="url(#clipPath20)"
           id="g16"><path
             id="path22"
             style="fill:#231f20;fill-opacity:1;fill-rule:nonzero;stroke:none"
             d="m 219.039,363.48 c 55.379,2.305 104.445,10.665 147.106,25.118 18.093,6.093 36.203,14.082 54.359,23.964 18.109,9.883 34.105,22.071 47.988,36.524 13.797,14.465 25.039,31.406 33.551,50.801 8.543,19.394 12.801,42.062 12.801,67.922 0,33.48 -7.192,61.828 -21.59,85.05 -14.383,23.184 -32.254,42.395 -53.543,57.629 -21.367,15.2 -44.531,27.016 -69.574,35.375 -25.043,8.36 -48.532,14.453 -70.356,18.282 -21.867,3.789 -40.261,6.093 -55.164,6.835 -14.953,0.743 -22.941,1.153 -24.004,1.153 H 142.27 V 363.48 Z M 142.27,1144.26 V 781.273 h 17.765 c 56.977,0.743 107.508,7.579 151.637,20.547 19.34,5.313 38.156,11.965 56.457,19.953 18.242,7.989 34.648,18.059 49.176,30.247 14.531,12.187 26.086,26.269 34.707,42.246 8.597,15.976 12.89,34.629 12.89,55.918 v 25.117 c 0,41.839 -12.093,74.209 -36.285,97.019 -24.203,22.85 -50.828,39.57 -79.847,50.24 -34.446,12.15 -73.161,19.39 -116.153,21.7 z M 452.344,775.551 c 25.136,-3.828 52.242,-9.696 81.34,-17.684 29.109,-7.988 56.195,-19.992 81.351,-35.969 25.137,-15.98 46.149,-36.343 63.055,-61.05 16.851,-24.746 25.305,-55.77 25.305,-93.039 0,-26.641 -3.606,-50.235 -10.797,-70.782 C 685.43,476.48 676.086,458.793 664.602,443.969 653.102,429.145 639.82,416.586 624.73,406.293 609.648,396.039 594.562,387.445 579.477,380.609 543.562,365.375 502.598,356.645 456.656,354.34 H 0 v 9.14 l 1.11328,780.78 2.23047,9.1 H 403.871 c 42.359,-2.27 80.781,-9.88 115.277,-22.81 14.348,-6.1 28.372,-13.34 42.028,-21.7 13.636,-8.36 25.84,-18.84 36.636,-31.4 10.758,-12.52 19.547,-27.2 26.383,-43.92 6.817,-16.76 10.235,-36.151 10.235,-58.229 0,-22.813 -4.309,-43.36 -12.93,-61.641 -8.617,-18.242 -19.395,-34.812 -32.305,-49.637 -12.933,-14.863 -26.961,-27.609 -42.047,-38.238 -15.082,-10.664 -29.46,-19.433 -43.082,-26.269 -13.656,-6.836 -25.3,-11.961 -35.019,-15.418 -9.695,-3.418 -15.274,-5.129 -16.703,-5.129 v -3.418" /><path
             id="path24"
             style="fill:#231f20;fill-opacity:1;fill-rule:nonzero;stroke:none"
             d="m 1860.75,399.047 c 11.75,10 21.51,24.082 29.31,42.168 7.85,18.105 14.02,38.906 18.63,62.394 4.53,23.524 7.46,49.149 8.76,76.875 1.3,27.719 1.97,56.625 1.97,86.684 0,30.062 -0.97,58.93 -2.94,86.687 -1.92,27.723 -5.2,53.321 -9.81,76.844 -4.57,23.481 -11.4,44.102 -20.5,61.824 -9.1,17.727 -20.85,31.211 -35.19,40.465 -28.69,18.465 -50.54,29.278 -65.51,32.364 -14.98,3.046 -26.38,4.609 -34.22,4.609 -7.81,0 -19.55,-1.563 -35.15,-4.609 -15.68,-3.086 -37.2,-13.899 -64.58,-32.364 -14.34,-9.254 -26.05,-22.738 -35.19,-40.465 -9.14,-17.722 -16.31,-38.343 -21.47,-61.824 -5.25,-23.523 -8.51,-49.121 -9.78,-76.844 -1.33,-27.757 -1.96,-56.625 -1.96,-86.687 0,-30.059 0.63,-58.965 1.96,-86.684 1.27,-27.726 4.53,-53.351 9.78,-76.875 5.16,-23.488 12.33,-44.113 21.47,-61.789 9.14,-17.773 20.85,-31.621 35.19,-41.621 18.24,-11.601 36.86,-20.429 55.77,-26.601 18.84,-6.172 33.52,-9.258 43.96,-9.258 h 15.64 c 35.22,0 66.51,11.601 93.86,34.707 z m 113.47,508.637 c 31.96,-20.547 59.15,-51.571 81.63,-93.039 22.46,-41.465 33.68,-91.887 33.68,-151.227 0,-59.34 -11.22,-109.984 -33.68,-151.82 -22.48,-41.848 -49.67,-72.688 -81.63,-92.453 -24.33,-15.977 -45.06,-28.165 -62.19,-36.524 -17.13,-8.398 -33.11,-14.668 -47.93,-18.828 -14.87,-4.18 -29.69,-6.66 -44.52,-7.441 -14.86,-0.743 -32.55,-1.114 -53.1,-1.114 h -11.41 c -20.54,0 -38.64,0.371 -54.21,1.114 -15.6,0.781 -31.39,3.261 -47.37,7.441 -15.98,4.16 -32.92,10.43 -50.79,18.828 -17.91,8.359 -39.01,20.547 -63.36,36.524 -31.96,19.765 -59.16,50.605 -81.6,92.453 -22.46,41.836 -33.66,92.48 -33.66,151.82 0,59.34 11.2,109.762 33.66,151.227 22.44,41.468 49.64,72.492 81.6,93.039 24.35,15.976 45.26,28.164 62.8,36.523 17.46,8.359 33.67,14.641 48.49,18.84 14.86,4.164 29.69,6.648 44.51,7.43 14.86,0.742 32.55,1.121 53.1,1.121 h 18.24 c 20.55,0 38.24,-0.379 53.1,-1.121 14.83,-0.782 29.65,-3.266 44.52,-7.43 14.82,-4.199 30.8,-10.481 47.93,-18.84 17.13,-8.359 37.86,-20.547 62.19,-36.523" /><path
             id="path26"
             style="fill:#231f20;fill-opacity:1;fill-rule:nonzero;stroke:none"
             d="m 1167.56,399.047 c 11.75,10 21.5,24.082 29.32,42.168 7.82,18.105 13.99,38.906 18.6,62.394 4.53,23.524 7.48,49.149 8.78,76.875 1.31,27.719 1.98,56.625 1.98,86.684 0,30.062 -0.97,58.93 -2.95,86.687 -1.94,27.723 -5.19,53.321 -9.8,76.844 -4.57,23.481 -11.42,44.102 -20.51,61.824 -9.12,17.727 -20.85,31.211 -35.2,40.465 -28.69,18.465 -50.52,29.278 -65.49,32.364 -14.98,3.046 -26.41,4.609 -34.23,4.609 -7.82,0 -19.54,-1.563 -35.16,-4.609 -15.67,-3.086 -37.201,-13.899 -64.564,-32.364 C 944,923.734 932.27,910.25 923.129,892.523 914.008,874.801 906.84,854.18 901.656,830.699 c -5.226,-23.523 -8.508,-49.121 -9.758,-76.844 -1.355,-27.757 -1.98,-56.625 -1.98,-86.687 0,-30.059 0.625,-58.965 1.98,-86.684 1.25,-27.726 4.532,-53.351 9.758,-76.875 5.184,-23.488 12.352,-44.113 21.473,-61.789 9.141,-17.773 20.871,-31.621 35.207,-41.621 18.242,-11.601 36.844,-20.429 55.754,-26.601 18.85,-6.172 33.53,-9.258 43.97,-9.258 h 15.65 c 35.2,0 66.49,11.601 93.85,34.707 z m 113.48,508.637 c 31.95,-20.547 59.15,-51.571 81.63,-93.039 22.43,-41.465 33.67,-91.887 33.67,-151.227 0,-59.34 -11.24,-109.984 -33.67,-151.82 -22.48,-41.848 -49.68,-72.688 -81.63,-92.453 -24.36,-15.977 -45.07,-28.165 -62.2,-36.524 -17.13,-8.398 -33.1,-14.668 -47.93,-18.828 -14.86,-4.18 -29.68,-6.66 -44.53,-7.441 -14.84,-0.743 -32.54,-1.114 -53.08,-1.114 h -11.41 c -20.55,0 -38.64,0.371 -54.21,1.114 -15.606,0.781 -31.395,3.261 -47.371,7.441 -15.977,4.16 -32.922,10.43 -50.793,18.828 -17.911,8.359 -39.012,20.547 -63.368,36.524 -31.964,19.765 -59.16,50.605 -81.601,92.453 -22.461,41.836 -33.664,92.48 -33.664,151.82 0,59.34 11.203,109.762 33.664,151.227 22.441,41.468 49.637,72.492 81.601,93.039 24.356,15.976 45.274,28.164 62.793,36.523 17.481,8.359 33.68,14.641 48.504,18.84 14.844,4.164 29.688,6.648 44.515,7.43 14.84,0.742 32.55,1.121 53.07,1.121 h 18.27 c 20.54,0 38.24,-0.379 53.08,-1.121 14.85,-0.782 29.67,-3.266 44.53,-7.43 14.83,-4.199 30.8,-10.481 47.93,-18.84 17.13,-8.359 37.84,-20.547 62.2,-36.523" /><path
             id="path28"
             style="fill:#231f20;fill-opacity:1;fill-rule:nonzero;stroke:none"
             d="m 485.562,41.8398 16.528,-12.75 C 488.699,11.5117 467.566,0 443.723,0 c -40.379,0 -73.219,32.8398 -73.219,73.2305 0,40.3715 32.84,73.1995 73.219,73.1995 23.843,0 44.976,-11.5 58.367,-29.059 L 485.562,104.59 c -9.624,12.781 -24.687,20.922 -41.839,20.922 -28.868,0 -52.301,-23.422 -52.301,-52.2815 0,-28.8907 23.433,-52.3086 52.301,-52.3086 17.152,0 32.215,8.1679 41.839,20.9179" /><path
             id="path30"
             style="fill:#231f20;fill-opacity:1;fill-rule:nonzero;stroke:none"
             d="m 626.848,73.2305 c 0,-28.8907 23.425,-52.3086 52.297,-52.3086 28.867,0 52.3,23.4179 52.3,52.3086 0,28.8595 -23.433,52.2815 -52.3,52.2815 -28.872,0 -52.297,-23.422 -52.297,-52.2815 z M 679.145,0 C 638.77,0 605.93,32.8398 605.93,73.2305 c 0,40.3715 32.84,73.1995 73.215,73.1995 40.375,0 73.218,-32.828 73.218,-73.1995 C 752.363,32.8398 719.52,0 679.145,0" /><path
             id="path32"
             style="fill:#231f20;fill-opacity:1;fill-rule:nonzero;stroke:none"
             d="m 895.953,20.9219 h 83.672 V 0 H 875.023 v 146.43 h 20.93 V 20.9219" /><path
             id="path34"
             style="fill:#231f20;fill-opacity:1;fill-rule:nonzero;stroke:none"
             d="m 1129.5,20.9219 h 83.67 V 0 h -104.6 v 146.43 h 20.93 V 20.9219" /><path
             id="path36"
             style="fill:#231f20;fill-opacity:1;fill-rule:nonzero;stroke:none"
             d="M 1363.04,125.512 V 82.7109 h 62.76 V 60.8398 l -62.76,-0.2109 v -39.707 h 83.67 V 0 h -104.6 v 146.43 h 104.6 v -20.918 h -83.67" /><path
             id="path38"
             style="fill:#231f20;fill-opacity:1;fill-rule:nonzero;stroke:none"
             d="m 1684.45,41.8398 16.52,-12.75 C 1687.58,11.5117 1666.45,0 1642.6,0 c -40.37,0 -73.22,32.8398 -73.22,73.2305 0,40.3715 32.85,73.1995 73.22,73.1995 23.85,0 44.98,-11.5 58.37,-29.059 l -16.52,-12.781 c -9.63,12.781 -24.69,20.922 -41.85,20.922 -28.86,0 -52.29,-23.422 -52.29,-52.2815 0,-28.8907 23.43,-52.3086 52.29,-52.3086 17.16,0 32.22,8.1679 41.85,20.9179" /><path
             id="path40"
             style="fill:#231f20;fill-opacity:1;fill-rule:nonzero;stroke:none"
             d="m 1932.42,146.43 v -20.918 h -52.3 V 0 h -20.93 v 125.512 h -52.29 v 20.918 h 125.52" /><path
             id="path42"
             style="fill:#231f20;fill-opacity:1;fill-rule:nonzero;stroke:none"
             d="m 2061.35,0 h 20.9297 V 146.43 H 2061.35 Z" /><path
             id="path44"
             style="fill:#231f20;fill-opacity:1;fill-rule:nonzero;stroke:none"
             d="m 2225.83,73.2305 c 0,-28.8907 23.44,-52.3086 52.31,-52.3086 28.87,0 52.29,23.4179 52.29,52.3086 0,28.8595 -23.42,52.2815 -52.29,52.2815 -28.87,0 -52.31,-23.422 -52.31,-52.2815 z M 2278.14,0 c -40.37,0 -73.22,32.8398 -73.22,73.2305 0,40.3715 32.85,73.1995 73.22,73.1995 40.37,0 73.22,-32.828 73.22,-73.1995 C 2351.36,32.8398 2318.51,0 2278.14,0" /><path
             id="path46"
             style="fill:#231f20;fill-opacity:1;fill-rule:nonzero;stroke:none"
             d="M 2599.56,146.43 V 0 h -1.26 L 2494.96,98.7305 V 0 h -20.93 v 146.43 h 1.05 L 2578.63,47.6992 V 146.43 h 20.93" /><path
             id="path48"
             style="fill:#231f20;fill-opacity:1;fill-rule:nonzero;stroke:none"
             d="m 2612.42,523.48 c 2.37,45.188 -21.7,98.098 -51.14,128.715 -26.93,28.055 -41.57,39.129 -137.03,87.395 -25.86,13.074 -111.43,54.73 -140.59,85.902 -60.61,64.879 -37.46,98.098 -13.98,115.637 27.32,20.394 89.03,11.476 89.03,11.476 0,0 21.36,-3.714 30.03,-5.945 13.3,-3.418 22.13,-7.207 33.58,-12.148 11.41,-4.942 21.47,-10.11 30.24,-15.422 8.74,-5.313 15.77,-9.512 21.12,-12.559 14.45,-9.101 41.69,-28.535 41.69,-28.535 l 10.4,15.156 c 0,0 -23.19,14.977 -24.68,15.758 -22.7,12.711 -39.64,22.852 -54.09,29.727 -14.46,6.836 -28.47,12.074 -41.03,16.644 -12.56,4.531 -27.79,6.985 -40.72,8.918 -12.97,1.895 -28.54,2.86 -46.82,2.86 -21.33,0 -43.77,-3.457 -67.32,-10.293 -23.6,-6.836 -45.49,-17.5 -65.67,-31.954 -20.17,-14.453 -36.7,-32.917 -49.63,-55.359 -12.97,-22.445 -19.4,-49.273 -19.4,-80.484 0,-19.805 2.45,-37.27 7.39,-52.5 4.95,-15.235 12.19,-29.508 21.7,-42.809 9.51,-13.301 20.92,-26.23 34.26,-38.789 13.3,-12.559 28.69,-25.711 46.23,-39.383 25.86,-20.55 54.02,-39.019 84.45,-55.367 30.43,-16.387 58.78,-31.953 85.05,-46.816 26.23,-14.825 48.3,-30.059 66.18,-45.625 17.88,-15.606 26.83,-32.559 26.83,-50.84 0,-11.406 -3.97,-20.137 -11.96,-26.231 -8,-6.093 -18.1,-10.839 -30.26,-14.257 -12.18,-3.418 -25.67,-5.547 -40.53,-6.29 -14.83,-0.781 -29.5,-1.152 -43.96,-1.152 -20.54,0 -41.46,2.461 -62.75,7.442 -21.33,4.941 -40.72,12.363 -58.22,22.246 -14.46,7.578 -27.58,18.652 -39.39,33.105 -11.79,14.453 -34.82,50.235 -34.82,50.235 0,0 13.11,-69.59 17.91,-72.11 5.65,-2.976 13.68,-7.137 32.4,-15.469 30.32,-14.863 36.45,-16.718 66.14,-26.562 29.65,-9.883 59.34,-14.863 89.02,-14.863 38.79,0 74.2,4.765 106.17,14.277 0,0 42.24,14.18 70.78,35.586 28.53,21.406 61,75.508 63.39,120.683" /><path
             id="path50"
             style="fill:#231f20;fill-opacity:1;fill-rule:nonzero;stroke:none"
             d="m 2926.65,370.922 c -13.72,4.941 -26.65,13.672 -38.84,26.23 -12.15,12.559 -22.07,29.121 -29.65,49.668 -7.62,20.547 -11.45,46.789 -11.45,78.742 l 0.23,399.504 100.32,-0.371 -0.07,19.805 h -100.48 v 227.14 h -10.25 c 0,-19.8 -7.06,-42.8 -21.1,-69.07 -14.12,-26.24 -32.55,-51.17 -55.36,-74.76 -22.86,-23.6 -49.27,-43.369 -79.33,-59.345 -30.1,-15.977 -61.09,-23.965 -93.05,-23.965 h -36.52 v -19.023 h 58.78 l 34.67,0.894 c 4.83,0.332 31.06,-0.078 31.06,-0.078 l -4.76,-425.664 c 0,0 -3.71,-99.512 91.41,-137.559 12.27,-2.968 8.03,-2.07 26.72,-5.117 12.63,-2.07 50.86,-3.125 74.83,-3.613 h 102.78 v 9.14 c -12.93,0 -26.23,2.461 -39.94,7.442" /></g></g></g></g></svg>