<?xml version="1.0" encoding="utf-8"?>
<!-- Generator: Adobe Illustrator 15.1.0, SVG Export Plug-In . SVG Version: 6.00 Build 0)  -->
<!DOCTYPE svg PUBLIC "-//W3C//DTD SVG 1.1//EN" "http://www.w3.org/Graphics/SVG/1.1/DTD/svg11.dtd">
<svg version="1.1" id="Calque_1" xmlns="http://www.w3.org/2000/svg" xmlns:xlink="http://www.w3.org/1999/xlink" x="0px" y="0px"
	 width="283.46px" height="141.73px" viewBox="0 0 283.46 141.73" enable-background="new 0 0 283.46 141.73" xml:space="preserve">
<g>
	<path fill-rule="evenodd" clip-rule="evenodd" d="M147.185,29.476c-6.611-0.39-5.849-9.328-12.715-10.504
		c-9.985-1.709-15.077,6.74-13.269,13.821c1.538,6.021,6.486,6.003,12.164,8.846c-1.453,11.442,12.64,14.659,21.008,18.797
		c13.416,6.634,26.318,13.397,40.357,20.455c7.77,3.906,15.596,6.795,16.032,14.374c0.947,16.447-19.866,13.269-37.594,13.269
		c-33.454,0-73.625,1.995-103.381,0c-9.473-0.635-20.103-4.081-20.455-13.269c-0.326-8.496,8.802-12.75,15.479-16.032
		c15.106-7.425,24.787-11.875,42.017-19.902c4.095-1.908,19.531-6.88,19.902-11.057c0.371-4.172-7.76-5.757-10.504-10.504
		c-7.264-12.566,3.216-29.747,22.114-24.325C142.704,14.696,151.189,21.685,147.185,29.476z M91.348,101.898
		c27.655,0,50.351,0,78.504,0c7.209,0,33.67,2.818,34.829-4.422c1.042-6.51-9.008-9.789-14.927-12.715
		c-14.359-7.102-24.664-12.297-37.594-18.798c-7.108-3.574-18.056-11.966-26.537-8.292c-18.041,7.815-37.364,18.187-55.284,26.537
		c-5.947,2.771-16.017,4.682-13.821,13.82C64.469,104.1,78.51,101.898,91.348,101.898z"/>
</g>
</svg>
