<?xml version="1.0" encoding="utf-8"?>
<!-- Generator: Adobe Illustrator 15.1.0, SVG Export Plug-In . SVG Version: 6.00 Build 0)  -->
<!DOCTYPE svg PUBLIC "-//W3C//DTD SVG 1.1//EN" "http://www.w3.org/Graphics/SVG/1.1/DTD/svg11.dtd">
<svg version="1.1" id="Calque_1" xmlns="http://www.w3.org/2000/svg" xmlns:xlink="http://www.w3.org/1999/xlink" x="0px" y="0px"
	 width="283.46px" height="141.73px" viewBox="0 0 283.46 141.73" enable-background="new 0 0 283.46 141.73" xml:space="preserve">
<g>
	<path fill-rule="evenodd" clip-rule="evenodd" d="M154.93,71.712c20.193,6.951,34.776,21.662,34.602,47.628
		c-29.593,1.355-64.85,1.355-94.443,0c0.02-25.636,13.876-40.938,34.602-47.221c-7.455-6.661-14.231-14.388-13.841-26.46
		c0.438-13.551,10.391-26.505,23.204-28.088c16.41-2.027,29.123,12.38,29.717,27.681C169.231,57.127,162.883,65.556,154.93,71.712z
		 M121.142,46.88c0.144,10.103,7.871,22.238,19.54,23.204c14.018,1.16,22.93-12.99,22.796-24.018
		c-0.154-12.868-10.676-25.313-24.424-22.796C129.533,25.013,120.969,34.789,121.142,46.88z M140.274,75.376
		c-23.317,1.051-37.185,17.355-39.894,39.894c27.954,0,55.906,0,83.859,0C181.652,91.601,165.351,74.246,140.274,75.376z"/>
</g>
</svg>
