<?xml version="1.0" encoding="utf-8"?>
<!-- Generator: Adobe Illustrator 21.1.0, SVG Export Plug-In . SVG Version: 6.00 Build 0)  -->
<svg version="1.1" id="Calque_1" xmlns="http://www.w3.org/2000/svg" xmlns:xlink="http://www.w3.org/1999/xlink" x="0px" y="0px"
	 viewBox="0 0 50 50" style="enable-background:new 0 0 50 50;" xml:space="preserve">
<style type="text/css">
	.st0{fill:#FCFDFF;stroke:#000000;stroke-width:0.5689;stroke-miterlimit:10;}
	.st1{fill:none;stroke:#000000;stroke-width:0.5689;stroke-miterlimit:10;}
</style>
<g>
	<g>
		<path class="st0" d="M35.5,20.5C35.5,14.7,30.8,10,25,10s-10.5,4.7-10.5,10.5c0,4.3,2.6,8,6.2,9.6h8.6
			C33,28.5,35.5,24.8,35.5,20.5z"/>
	</g>
	<path class="st0" d="M28.8,35.4h-7.5c-0.4,0-0.8-0.4-0.8-0.9V31c0-0.5,0.3-0.9,0.8-0.9h7.5c0.4,0,0.8,0.4,0.8,0.9v3.5
		C29.5,35,29.2,35.4,28.8,35.4z"/>
	<path class="st0" d="M27.9,37.2h-5.7c-0.3,0-0.6-0.3-0.6-0.7v-0.4c0-0.4,0.3-0.7,0.6-0.7h5.7c0.3,0,0.6,0.3,0.6,0.7v0.4
		C28.5,36.9,28.2,37.2,27.9,37.2z"/>
	<path class="st0" d="M27.9,38.9h-5.7c-0.3,0-0.6-0.3-0.6-0.7v-0.4c0-0.4,0.3-0.7,0.6-0.7h5.7c0.3,0,0.6,0.3,0.6,0.7v0.4
		C28.5,38.6,28.2,38.9,27.9,38.9z"/>
	<path class="st0" d="M27.4,40h-4.7c-0.3,0-0.5-0.2-0.5-0.4v-0.3c0-0.2,0.2-0.4,0.5-0.4h4.7c0.3,0,0.5,0.2,0.5,0.4v0.3
		C27.8,39.8,27.6,40,27.4,40z"/>
	<path class="st1" d="M20.4,20c0-1.6,0.8-2.9,1.7-2.9s2.1,1.1,2.3,2.8c0.2,1.6-0.3,2.9-1.3,2.9"/>
	<path class="st1" d="M25,17.1c-2.1,0-3.1,1.7-3.3,3.1c-0.3,1.6,0.5,2.7,1.5,2.7"/>
	<path class="st1" d="M29.6,20c0-1.6-0.8-2.9-1.7-2.9s-2.1,1.1-2.3,2.8c-0.2,1.6,0.3,2.9,1.3,2.9"/>
	<path class="st1" d="M25,17.1c2.1,0,3.1,1.7,3.3,3.1c0.3,1.6-0.5,2.7-1.5,2.7"/>
	<path class="st1" d="M25,17.1"/>
	<line class="st1" x1="20.4" y1="20" x2="20.4" y2="30"/>
	<line class="st1" x1="29.6" y1="20" x2="29.6" y2="30"/>
</g>
</svg>
