<?xml version="1.0" encoding="utf-8"?>
<!-- Generator: Adobe Illustrator 21.1.0, SVG Export Plug-In . SVG Version: 6.00 Build 0)  -->
<svg version="1.1" id="Calque_1" xmlns="http://www.w3.org/2000/svg" xmlns:xlink="http://www.w3.org/1999/xlink" x="0px" y="0px"
	 viewBox="0 0 50 50" style="enable-background:new 0 0 50 50;" xml:space="preserve">
<style type="text/css">
	.st0{fill:none;stroke:#000000;stroke-width:0.5689;stroke-linecap:round;stroke-linejoin:round;stroke-miterlimit:10;}
	.st1{fill:#FFFFFF;stroke:#000000;stroke-width:0.5689;stroke-linecap:round;stroke-linejoin:round;stroke-miterlimit:10;}
</style>
<g>
	<path class="st0" d="M21.8,19.6v9.6L15,42.6c-0.5,1.1,0.3,2.4,1.5,2.5c0,0,0.1,0,0.1,0h16.8c0,0,0.1,0,0.1,0c1.2-0.1,2-1.4,1.4-2.5
		l-6.6-13.3v-9.6"/>
	<path class="st1" d="M28.4,19.6"/>
	<path class="st1" d="M19.8,33.2L15,42.6c-0.5,1.1,0.3,2.4,1.5,2.5c0,0,0.1,0,0.1,0h16.8c0,0,0.1,0,0.1,0c1.2-0.1,2-1.4,1.4-2.5
		l-4.7-9.4"/>
	<path class="st1" d="M21.8,19.6"/>
	<path class="st0" d="M21.8,19.6h-0.8c-0.4,0-0.8-0.4-0.8-0.8v0c0-0.4,0.4-0.8,0.8-0.8h7.9c0.4,0,0.8,0.4,0.8,0.8v0
		c0,0.4-0.4,0.8-0.8,0.8h-0.5"/>
	<line class="st1" x1="30.3" y1="33.2" x2="19.8" y2="33.2"/>
	<circle class="st1" cx="24.1" cy="28.1" r="0.9"/>
	<circle class="st1" cx="23.1" cy="15.4" r="0.9"/>
	<circle class="st1" cx="26" cy="24.1" r="1.3"/>
	<ellipse transform="matrix(0.9742 -0.2257 0.2257 0.9742 -2.4211 6.7442)" class="st1" cx="28.3" cy="14" rx="1.6" ry="1.6"/>
	<ellipse transform="matrix(0.9742 -0.2257 0.2257 0.9742 -1.3074 5.1448)" class="st1" cx="21.8" cy="8.3" rx="2.3" ry="2.3"/>
</g>
</svg>
