<?xml version="1.0" encoding="utf-8"?>
<!-- Generator: Adobe Illustrator 21.1.0, SVG Export Plug-In . SVG Version: 6.00 Build 0)  -->
<svg version="1.1"
	 id="Calque_1" xmlns:cc="http://creativecommons.org/ns#" xmlns:dc="http://purl.org/dc/elements/1.1/" xmlns:inkscape="http://www.inkscape.org/namespaces/inkscape" xmlns:rdf="http://www.w3.org/1999/02/22-rdf-syntax-ns#" xmlns:sodipodi="http://sodipodi.sourceforge.net/DTD/sodipodi-0.dtd" xmlns:svg="http://www.w3.org/2000/svg"
	 xmlns="http://www.w3.org/2000/svg" xmlns:xlink="http://www.w3.org/1999/xlink" x="0px" y="0px" viewBox="0 0 88 88"
	 style="enable-background:new 0 0 88 88;" xml:space="preserve">
<g transform="translate(0,-952.36218)">
	<path d="M44,1040.4c24.3,0,44-19.7,44-44c0-24.3-19.7-44-44-44c-24.3,0-44,19.7-44,44C0,1020.6,19.7,1040.4,44,1040.4z M44,1034.4
		c-21,0-38-17-38-38c0-21,17-38,38-38c21,0,38,17,38,38C82,1017.4,65,1034.4,44,1034.4z M44,1022.2l1.8-1.4l23-18l-3.7-4.7
		L44,1014.6L22.8,998l-3.7,4.7l23,18C42.2,1020.7,44,1022.2,44,1022.2z M44,1002.2l1.8-1.4l23-18l-3.7-4.7L44,994.6L22.8,978
		l-3.7,4.7l23,18C42.2,1000.7,44,1002.2,44,1002.2z"/>
</g>
</svg>
