<?xml version="1.0" encoding="utf-8"?>
<!-- Generator: Adobe Illustrator 21.1.0, SVG Export Plug-In . SVG Version: 6.00 Build 0)  -->
<svg version="1.1" id="Calque_1" xmlns="http://www.w3.org/2000/svg" xmlns:xlink="http://www.w3.org/1999/xlink" x="0px" y="0px"
	 viewBox="0 0 50 50" style="enable-background:new 0 0 50 50;" xml:space="preserve">
<style type="text/css">
	.st0{fill:#FFFFFF;stroke:#000000;stroke-width:0.5689;stroke-linecap:round;stroke-linejoin:round;stroke-miterlimit:10;}
</style>
<path class="st0" d="M35,26.4L33,25.7c0.1-0.6,0-1.2,0-1.9l1.9-0.7c0.1,0,0.1-0.1,0.1-0.2l-0.5-1.6c0-0.1-0.1-0.1-0.2-0.1l-2,0.4
	c-0.3-0.6-0.6-1.1-1-1.6l1.3-1.6c0.1-0.1,0.1-0.2,0-0.3l-1.2-1.1c-0.1-0.1-0.2-0.1-0.3,0l-1.5,1.3c-0.5-0.4-1-0.7-1.6-0.9l0.3-2
	c0-0.1,0-0.2-0.1-0.2l-0.5-0.1l-0.3-0.1l-0.8-0.2c-0.1,0-0.2,0-0.2,0.1L25.7,17c-0.6-0.1-1.2,0-1.9,0l-0.7-1.9
	c0-0.1-0.1-0.1-0.2-0.1l-1.6,0.5c-0.1,0-0.1,0.1-0.1,0.2l0.4,2c-0.6,0.3-1.1,0.6-1.6,1l-1.6-1.3c-0.1-0.1-0.2-0.1-0.3,0l-1.1,1.2
	c-0.1,0.1-0.1,0.2,0,0.3l1.3,1.5c-0.4,0.5-0.7,1-0.9,1.6l-2-0.3c-0.1,0-0.2,0-0.2,0.1l-0.4,1.6c0,0.1,0,0.2,0.1,0.2l1.9,0.7
	c-0.1,0.6,0,1.2,0,1.9l-1.9,0.7C15,26.9,15,27,15,27.1l0.5,1.6c0,0.1,0.1,0.1,0.2,0.1l2-0.4c0.3,0.6,0.6,1.1,1,1.6l-1.3,1.6
	c-0.1,0.1-0.1,0.2,0,0.3l1.2,1.1c0.1,0.1,0.2,0.1,0.3,0l1.5-1.3c0.5,0.4,1,0.7,1.6,0.9l-0.3,2c0,0.1,0,0.2,0.1,0.2l0.8,0.2l0.3,0.1
	l0.5,0.1c0.1,0,0.2,0,0.2-0.1l0.7-1.9c0.6,0.1,1.2,0,1.9,0l0.7,1.9c0,0.1,0.1,0.1,0.2,0.1l1.6-0.5c0.1,0,0.1-0.1,0.1-0.2l-0.4-2
	c0.6-0.3,1.1-0.6,1.6-1l1.6,1.3c0.1,0.1,0.2,0.1,0.3,0l1.1-1.2c0.1-0.1,0.1-0.2,0-0.3l-1.4-1.5c0.4-0.5,0.7-1,0.9-1.6l2,0.3
	c0.1,0,0.2,0,0.2-0.1l0.4-1.6C35.1,26.5,35.1,26.4,35,26.4z M30.1,26.2c-0.7,2.8-3.5,4.5-6.3,3.8c-2.8-0.7-4.5-3.5-3.8-6.3
	c0.7-2.8,3.5-4.5,6.3-3.8C29,20.6,30.8,23.4,30.1,26.2z"/>
<path class="st0" d="M31.6,24.4l-1.3-0.1c-0.1-0.4-0.2-0.8-0.3-1.2l1.1-0.8c0.1,0,0.1-0.1,0-0.2l-0.5-0.9c0-0.1-0.1-0.1-0.2,0
	l-1.2,0.6c-0.3-0.3-0.5-0.6-0.9-0.9l0.6-1.2c0-0.1,0-0.1,0-0.2l-0.9-0.5c-0.1,0-0.1,0-0.2,0L27,20.1c-0.4-0.1-0.8-0.3-1.2-0.3
	l-0.1-1.3c0-0.1-0.1-0.1-0.1-0.1l-0.3,0l-0.2,0l-0.6,0c-0.1,0-0.1,0.1-0.1,0.1l-0.1,1.3c-0.4,0.1-0.8,0.2-1.2,0.3l-0.8-1.1
	c0-0.1-0.1-0.1-0.2,0l-0.9,0.5c-0.1,0-0.1,0.1,0,0.2l0.6,1.2c-0.3,0.3-0.6,0.5-0.9,0.9l-1.2-0.6c-0.1,0-0.1,0-0.2,0l-0.5,0.9
	c0,0.1,0,0.1,0,0.2l1.1,0.8c-0.2,0.4-0.3,0.8-0.3,1.2l-1.3,0.1c-0.1,0-0.1,0.1-0.1,0.1l0,1.1c0,0.1,0.1,0.1,0.1,0.1l1.3,0.1
	c0.1,0.4,0.2,0.8,0.3,1.2l-1.1,0.8c-0.1,0-0.1,0.1,0,0.2l0.5,0.9c0,0.1,0.1,0.1,0.2,0l1.2-0.6c0.3,0.3,0.5,0.6,0.9,0.9l-0.6,1.2
	c0,0.1,0,0.1,0,0.2l0.9,0.5c0.1,0,0.1,0,0.2,0l0.8-1.1c0.4,0.2,0.8,0.3,1.2,0.3l0.1,1.3c0,0.1,0.1,0.1,0.1,0.1l0.6,0l0.2,0l0.3,0
	c0.1,0,0.1-0.1,0.1-0.1l0.1-1.3c0.4-0.1,0.8-0.2,1.2-0.3l0.8,1.1c0,0.1,0.1,0.1,0.2,0l0.9-0.5c0.1,0,0.1-0.1,0-0.2l-0.6-1.2
	c0.3-0.3,0.6-0.5,0.9-0.9l1.2,0.6c0.1,0,0.1,0,0.2,0l0.5-0.9c0-0.1,0-0.1,0-0.2L29.9,27c0.1-0.4,0.3-0.8,0.3-1.2l1.3-0.1
	c0.1,0,0.1-0.1,0.1-0.1l0-1.1C31.7,24.4,31.7,24.4,31.6,24.4z M28.2,25c0,1.7-1.4,3.1-3.2,3.1c-1.7,0-3.1-1.4-3.1-3.2
	c0-1.7,1.4-3.1,3.2-3.1C26.8,21.9,28.2,23.3,28.2,25z"/>
</svg>
