<?xml version="1.0" encoding="utf-8"?>
<!-- Generator: Adobe Illustrator 21.1.0, SVG Export Plug-In . SVG Version: 6.00 Build 0)  -->
<svg version="1.1" id="Calque_1" xmlns="http://www.w3.org/2000/svg" xmlns:xlink="http://www.w3.org/1999/xlink" x="0px" y="0px"
	 viewBox="0 0 312.7 69.3" style="enable-background:new 0 0 312.7 69.3;" xml:space="preserve">
<g>
	<path d="M193,69.3c-13.5,0-24.6-11-24.6-24.6c0-13.5,11-24.6,24.6-24.6c13.5,0,24.6,11,24.6,24.6C217.6,58.3,206.6,69.3,193,69.3z
		 M193,28.9c-8.7,0-15.9,7.1-15.9,15.9s7.1,15.9,15.9,15.9s15.9-7.1,15.9-15.9S201.8,28.9,193,28.9z"/>
	<g>
		<path d="M78.6,69.3C65,69.3,54,58.3,54,44.8c0-13.5,11-24.6,24.6-24.6s24.6,11,24.6,24.6v4.4H63.3c1.9,6.6,8,11.5,15.3,11.5
			c4.3,0,8.3-1.7,11.3-4.7l6.2,6.1C91.4,66.8,85.2,69.3,78.6,69.3z M63.3,40.4h30.5c-1.9-6.6-8-11.5-15.3-11.5S65.2,33.8,63.3,40.4z
			"/>
		<rect x="66.1" width="25" height="8.7"/>
	</g>
	<path d="M289.5,20.2c-7.8,0-14.6,3.8-18.9,9.7c-4.2-5.9-11.1-9.7-18.9-9.7c-12.8,0-23.2,10.4-23.2,23.2v25.9h8.7V43.4
		c0-8,6.5-14.5,14.5-14.5s14.5,6.5,14.5,14.5v15.1h8.7V43.4c0-8,6.5-14.5,14.5-14.5c8,0,14.5,6.5,14.5,14.5v5.7h8.7v-5.7
		C312.7,30.6,302.3,20.2,289.5,20.2z"/>
	<polygon points="157.5,20.2 114.1,20.2 114.1,28.9 145.3,28.9 114.1,60.6 114.1,69.3 157.5,69.3 157.5,60.6 126.3,60.6 157.5,28.9 
			"/>
	<path d="M43.1,24.6C43.1,11,32.1,0,18.5,0H0v8.7h18.5c8.7,0,15.9,7.1,15.9,15.9s-7.1,15.9-15.9,15.9H0v8.7h16.6l10.7,20.2h9.8
		L25.8,48C35.8,44.9,43.1,35.6,43.1,24.6z"/>
</g>
</svg>
