<?xml version="1.0" encoding="utf-8"?>
<!-- Generator: Adobe Illustrator 21.1.0, SVG Export Plug-In . SVG Version: 6.00 Build 0)  -->
<svg version="1.1" id="Calque_1" xmlns="http://www.w3.org/2000/svg" xmlns:xlink="http://www.w3.org/1999/xlink" x="0px" y="0px"
	 viewBox="0 0 50 50" style="enable-background:new 0 0 50 50;" xml:space="preserve">
<style type="text/css">
	.st0{fill:#FFFFFF;stroke:#000000;stroke-width:0.5689;stroke-linecap:round;stroke-linejoin:round;stroke-miterlimit:10;}
</style>
<g>
	<g>
		<polyline class="st0" points="41.6,22.3 41.6,40.2 8.4,40.2 8.4,22.3 		"/>
	</g>
	<g>
		<polyline class="st0" points="18,39.9 18,26.5 32,26.5 32,39.9 		"/>
	</g>
	<g>
		<g>
			<rect x="8.5" y="9.8" class="st0" width="33.3" height="3.8"/>
		</g>
		<path class="st0" d="M14,13.8l-1.7,8.2c0,1.2-1.4,2.2-3.2,2.2h0c-1.7,0-3.2-1-3.2-2.2l2.6-8.2"/>
		<path class="st0" d="M19.6,13.8l-0.9,8.2c0,1.2-1.4,2.2-3.2,2.2h0c-1.7,0-3.2-1-3.2-2.2l1.7-8.2"/>
		<path class="st0" d="M25,13.8v8.2c0,1.2-1.4,2.2-3.2,2.2h0c-1.7,0-3.2-1-3.2-2.2l0.9-8.2"/>
		<path class="st0" d="M30.5,13.8l0.9,8.2c0,1.2-1.4,2.2-3.2,2.2h0c-1.7,0-3.2-1-3.2-2.2v-8.2"/>
		<path class="st0" d="M36,13.8l1.7,8.2c0,1.2-1.4,2.2-3.2,2.2h0c-1.7,0-3.2-1-3.2-2.2l-0.9-8.2"/>
		<path class="st0" d="M41.4,13.8l2.6,8.2c0,1.2-1.4,2.2-3.2,2.2h0c-1.7,0-3.2-1-3.2-2.2L36,13.8"/>
	</g>
	<line class="st0" x1="25" y1="26.5" x2="25" y2="39.9"/>
</g>
</svg>
