<?xml version="1.0" encoding="utf-8"?>
<!-- Generator: Adobe Illustrator 21.1.0, SVG Export Plug-In . SVG Version: 6.00 Build 0)  -->
<svg version="1.1" id="Calque_1" xmlns="http://www.w3.org/2000/svg" xmlns:xlink="http://www.w3.org/1999/xlink" x="0px" y="0px"
	 viewBox="0 0 50 50" style="enable-background:new 0 0 50 50;" xml:space="preserve">
<style type="text/css">
	.st0{fill:#FFFFFF;}
</style>
<g>
	<g>
		<path class="st0" d="M45.4,29.8c-0.8,0-1.7-1.9-1.7-4.7c0-2.7,0.9-4.7,1.7-4.7s1.7,1.9,1.7,4.7C47.1,27.9,46.2,29.8,45.4,29.8z"/>
		<path d="M45.4,20.8c0.5,0,1.4,1.5,1.4,4.4s-0.9,4.4-1.4,4.4S44,28,44,25.1S44.9,20.8,45.4,20.8 M45.4,20.2c-1.1,0-2,2.2-2,4.9
			s0.9,4.9,2,4.9s2-2.2,2-4.9S46.5,20.2,45.4,20.2L45.4,20.2z"/>
	</g>
	<g>
		<rect x="3.5" y="22.6" class="st0" width="7.9" height="4.8"/>
		<path d="M11.1,22.9v4.2H3.8v-4.2H11.1 M11.6,22.3H3.2v5.4h8.4V22.3L11.6,22.3z"/>
	</g>
	<g>
		<rect x="2.9" y="21.9" class="st0" width="1.5" height="6.2"/>
		<path d="M4.1,22.2v5.7H3.2v-5.7H4.1 M4.7,21.6h-2v6.8h2V21.6L4.7,21.6z"/>
	</g>
	<g>
		<rect x="11.4" y="21.7" class="st0" width="10.1" height="6.5"/>
		<path d="M21.2,22V28h-9.5V22H21.2 M21.8,21.5H11.1v7.1h10.7V21.5L21.8,21.5z"/>
	</g>
	<g>
		<rect x="21.5" y="21" class="st0" width="10.6" height="7.9"/>
		<path d="M31.8,21.3v7.3h-10v-7.3H31.8 M32.4,20.8H21.2v8.5h11.2V20.8L32.4,20.8z"/>
	</g>
	<g>
		<rect x="32" y="20.3" class="st0" width="12.6" height="9.4"/>
		<path d="M44.3,20.6v8.8h-12v-8.8H44.3 M44.8,20H31.7v10h13.1V20L44.8,20z"/>
	</g>
	<g>
		<rect x="44.3" y="19.6" class="st0" width="1.7" height="10.7"/>
		<path d="M45.7,19.9v10.2h-1.1V19.9H45.7 M46.2,19.3H44v11.3h2.3V19.3L46.2,19.3z"/>
	</g>
</g>
</svg>
