<?xml version="1.0" encoding="utf-8"?>
<!-- Generator: Adobe Illustrator 21.1.0, SVG Export Plug-In . SVG Version: 6.00 Build 0)  -->
<svg version="1.1"
	 id="Calque_1" xmlns:cc="http://creativecommons.org/ns#" xmlns:dc="http://purl.org/dc/elements/1.1/" xmlns:inkscape="http://www.inkscape.org/namespaces/inkscape" xmlns:rdf="http://www.w3.org/1999/02/22-rdf-syntax-ns#" xmlns:sodipodi="http://sodipodi.sourceforge.net/DTD/sodipodi-0.dtd" xmlns:svg="http://www.w3.org/2000/svg"
	 xmlns="http://www.w3.org/2000/svg" xmlns:xlink="http://www.w3.org/1999/xlink" x="0px" y="0px" viewBox="0 0 88 88"
	 style="enable-background:new 0 0 88 88;" xml:space="preserve">
<g transform="translate(0,-952.36218)">
	<path d="M44,952.4c-24.3,0-44,19.7-44,44c0,24.3,19.7,44,44,44c24.3,0,44-19.7,44-44C88,972.1,68.3,952.4,44,952.4z M44,958.4
		c21,0,38,17,38,38c0,21-17,38-38,38c-21,0-38-17-38-38C6,975.3,23,958.4,44,958.4z M44,970.5l-1.8,1.4l-23,18l3.7,4.7L44,978.1
		l21.2,16.6l3.7-4.7l-23-18C45.8,972,44,970.5,44,970.5z M44,990.5l-1.8,1.4l-23,18l3.7,4.7L44,998.1l21.2,16.6l3.7-4.7l-23-18
		C45.8,992,44,990.5,44,990.5z"/>
</g>
</svg>
